<?xml version="1.0" encoding="UTF-8"?>
<svg width="16px" height="20px" viewBox="0 0 16 20" version="1.1" xmlns="http://www.w3.org/2000/svg" xmlns:xlink="http://www.w3.org/1999/xlink">
    <title>Bag</title>
    <defs>
        <path d="M4.60672095,5.13395206 L4.60672095,4.03043468 C4.60672095,2.05696216 6.17426746,0.438300006 8.09999979,0.438300006 C10.0257321,0.438300006 11.5932786,2.05696216 11.5932786,4.03043468 L11.5932786,5.13395206 L15.789484,5.13395206 L15.7609123,5.62260192 L15.1548936,15.9864858 C15.0679992,17.8707728 13.5439408,19.3616995 11.6999997,19.3616995 L4.49999988,19.3616995 C2.65048858,19.3616995 1.09384645,17.8651526 1.00741315,15.9904877 L0.412298185,5.13395206 L4.60672095,5.13395206 Z M5.53012089,5.13395206 L10.6698787,5.13395206 L10.6698787,4.03043468 C10.6698787,2.56042902 9.50900421,1.36169995 8.09999979,1.36169995 C6.69099536,1.36169995 5.53012089,2.56042902 5.53012089,4.03043468 L5.53012089,5.13395206 Z M4.60672095,6.057352 L1.38770095,6.057352 L1.92963083,15.9439481 C1.99359785,17.3310589 3.14530074,18.4382995 4.49999988,18.4382995 L11.6999997,18.4382995 C13.0455322,18.4382995 14.1680879,17.3401472 14.2327711,15.9382671 L14.8105151,6.057352 L11.5932786,6.057352 L11.5932786,9.5086954 L10.6698787,9.5086954 L10.6698787,6.057352 L5.53012089,6.057352 L5.53012089,9.5086954 L4.60672095,9.5086954 L4.60672095,6.057352 Z" id="path-1"></path>
    </defs>
    <g id="Symbols" stroke="none" stroke-width="1" fill="none" fill-rule="evenodd">
        <g id="Button/Link-Groups" transform="translate(0.000000, -3.000000)">
            <g id="Icon/Bag" transform="translate(0.000000, 3.000000)">
                <mask id="mask-2" fill="white">
                    <use xlink:href="#path-1"></use>
                </mask>
                <g id="Combined-Shape" fill-rule="nonzero"></g>
                <g id="colour/black" mask="url(#mask-2)" fill="#000000" fill-rule="evenodd">
                    <g transform="translate(-24.299999, -23.399999)" id="Rectangle-Copy">
                        <rect x="0" y="0" width="63.8999983" height="63.8999983"></rect>
                    </g>
                </g>
            </g>
        </g>
    </g>
</svg>