<?xml version="1.0" encoding="utf-8"?>
<!-- Generator: Adobe Illustrator 25.0.0, SVG Export Plug-In . SVG Version: 6.00 Build 0)  -->
<svg width="50px" height="50px"  version="1.1" id="Layer_1" xmlns="http://www.w3.org/2000/svg" xmlns:xlink="http://www.w3.org/1999/xlink" x="0px" y="0px"
	 viewBox="0 0 40 40" style="enable-background:new 0 0 40 40;" xml:space="preserve">
<style type="text/css">
	.st0{fill:#FFFFFF;}
</style>
<g>
	<path class="st0" d="M20.87,38.43l-0.7-1.09c-0.61-0.95-1.46-2.16-2.44-3.55C13.62,27.94,8,19.94,8,14.45
		c0-7.1,5.77-12.87,12.87-12.87s12.87,5.77,12.87,12.87c0,5.5-5.63,13.5-9.73,19.34c-0.98,1.39-1.83,2.6-2.44,3.55L20.87,38.43z
		 M20.87,3.24c-6.18,0-11.21,5.03-11.21,11.21c0,4.97,5.67,13.04,9.43,18.38c0.66,0.94,1.26,1.8,1.78,2.55
		c0.51-0.76,1.12-1.61,1.78-2.55c3.76-5.34,9.43-13.41,9.43-18.38C32.08,8.27,27.05,3.24,20.87,3.24z"/>
</g>
<circle class="st0" cx="20.87" cy="14.35" r="9.11"/>
</svg>
