<?xml version="1.0" encoding="UTF-8"?>
<svg width="12px" height="12px" viewBox="0 0 12 12" version="1.1" xmlns="http://www.w3.org/2000/svg" xmlns:xlink="http://www.w3.org/1999/xlink">
    <title>information</title>
    <defs>
        <path d="M5.63546623,8.2021327 L5.63546623,5.51786624 L4.99333295,5.51786624 L4.99333295,4.93546629 L6.21786619,4.93546629 L6.21786619,8.2021327 L6.85999947,8.2021327 L6.85999947,8.78453266 L4.99333295,8.78453266 L4.99333295,8.2021327 L5.63546623,8.2021327 Z M5.92666621,11.5845324 C2.80191298,11.5845324 0.268799979,9.05141945 0.268799979,5.92666621 C0.268799979,2.80191298 2.80191298,0.268799979 5.92666621,0.268799979 C9.05141945,0.268799979 11.5845324,2.80191298 11.5845324,5.92666621 C11.5845324,9.05141945 9.05141945,11.5845324 5.92666621,11.5845324 Z M5.92666621,11.0021325 C8.72976884,11.0021325 11.0021325,8.72976884 11.0021325,5.92666621 C11.0021325,3.12356359 8.72976884,0.851199935 5.92666621,0.851199935 C3.12356359,0.851199935 0.851199935,3.12356359 0.851199935,5.92666621 C0.851199935,8.72976884 3.12356359,11.0021325 5.92666621,11.0021325 Z M5.92666621,4.05999969 C5.66893335,4.05999969 5.45999958,3.85106592 5.45999958,3.59333306 C5.45999958,3.33560019 5.66893335,3.12666643 5.92666621,3.12666643 C6.18439908,3.12666643 6.39333284,3.33560019 6.39333284,3.59333306 C6.39333284,3.85106592 6.18439908,4.05999969 5.92666621,4.05999969 Z" id="path-1"></path>
    </defs>
    <g id="Symbols" stroke="none" stroke-width="1" fill="none" fill-rule="evenodd">
        <g id="Product/Delivery" transform="translate(-268.000000, -54.000000)">
            <g id="Icons/information" transform="translate(268.000000, 54.000000)">
                <g id="Information" transform="translate(-0.000000, -0.000000)">
                    <mask id="mask-2" fill="white">
                        <use xlink:href="#path-1"></use>
                    </mask>
                    <g id="Combined-Shape" fill-rule="nonzero"></g>
                    <g id="colour/black" mask="url(#mask-2)" fill="#000000">
                        <g transform="translate(-13.673332, -14.921666)" id="Rectangle-Copy">
                            <rect x="0" y="0" width="39.759997" height="39.759997"></rect>
                        </g>
                    </g>
                </g>
            </g>
        </g>
    </g>
</svg>