<?xml version="1.0" encoding="UTF-8"?>
<svg width="20px" height="21px" viewBox="0 0 20 21" version="1.1" xmlns="http://www.w3.org/2000/svg">
    <g id="Symbols" stroke="none" stroke-width="1" fill="none" fill-rule="evenodd">
        <g id="Header/Desktop" transform="translate(-1244.000000, -30.000000)" fill="#231F20">
            <g id="Group-3" transform="translate(1244.000000, 29.000000)">
                <path d="M1.94909927,9.26506349 C1.94909927,5.82175837 4.65249996,3.0200077 7.97454476,3.0200077 C11.2969794,3.0200077 14.0003801,5.82175837 14.0003801,9.26506349 C14.0003801,12.7083686 11.2969794,15.5097153 7.97454476,15.5097153 C4.65249996,15.5097153 1.94909927,12.7083686 1.94909927,9.26506349 M19.7143595,20.2761254 L14.1430541,14.5017314 C15.2715826,13.07601 15.9494793,11.2527511 15.9494793,9.26506349 C15.9494793,4.7006541 12.3791193,1 7.97454476,1 C3.57036005,1 0,4.7006541 0,9.26506349 C0,13.8294729 3.57036005,17.529723 7.97454476,17.529723 C9.7579706,17.529723 11.3991122,16.9156406 12.7272284,15.8906887 L18.3363463,21.7042709 C18.5265784,21.9014236 18.7760631,22 19.0255478,22 C19.2746427,22 19.5241274,21.9014236 19.7143595,21.7042709 C20.0952135,21.3099654 20.0952135,20.6704309 19.7143595,20.2761254" id="Fill-3"></path>
            </g>
        </g>
    </g>
</svg>
