<?xml version="1.0" encoding="UTF-8"?>
<svg width="22px" height="23px" viewBox="0 0 22 23" version="1.1" xmlns="http://www.w3.org/2000/svg" xmlns:xlink="http://www.w3.org/1999/xlink">
    <title>A05A9A43-DBBE-4DAF-B8EE-356C02704B23</title>
    <g id="Ecommerce" stroke="none" stroke-width="1" fill="none" fill-rule="evenodd">
        <g id="App_homepage" transform="translate(-261.000000, -81.000000)" fill="#000000" fill-rule="nonzero">
            <g id="App-/-Navigation-/-Homepage" transform="translate(0.000000, 32.000000)">
                <g id="Top-menu" transform="translate(0.000000, 32.000000)">
                    <g id="Right-Icons" transform="translate(261.000000, 17.750046)">
                        <path d="M21.4241509,21.8495573 L21.8495573,21.4241509 C22.0515183,21.2222318 22.0515183,20.8956449 21.8495573,20.6936839 L16.3066017,15.1507283 C16.2077822,15.0519088 16.0788763,15.0003381 15.9413682,15.0003381 L15.4987996,15.0003381 C16.9726158,13.406218 17.8749574,11.27927 17.8749574,8.93747869 C17.8749574,4.0003643 13.8745931,0 8.93747869,0 C4.0003643,0 0,4.0003643 0,8.93747869 C0,13.8745931 4.0003643,17.8749574 8.93747869,17.8749574 C11.27927,17.8749574 13.406218,16.9726158 15.0003381,15.5030796 L15.0003381,15.9413682 C15.0003381,16.0788763 15.0562309,16.2077822 15.1507283,16.3066017 L20.6936839,21.8495573 C20.8956449,22.0515183 21.2222318,22.0515183 21.4241509,21.8495573 Z M8.93747869,16.4999607 C4.75663768,16.4999607 1.37499672,13.1183197 1.37499672,8.93747869 C1.37499672,4.75663768 4.75663768,1.37499672 8.93747869,1.37499672 C13.1183197,1.37499672 16.4999607,4.75663768 16.4999607,8.93747869 C16.4999607,13.1183197 13.1183197,16.4999607 8.93747869,16.4999607 Z" id="Search"></path>
                    </g>
                </g>
            </g>
        </g>
    </g>
</svg>