<?xml version="1.0" encoding="UTF-8"?>
<svg width="20px" height="20px" viewBox="0 0 20 20" version="1.1" xmlns="http://www.w3.org/2000/svg" xmlns:xlink="http://www.w3.org/1999/xlink">
    <title>spinner</title>
    <defs>
        <path d="M9.48,-4.88498131e-15 L10.52,-4.88498131e-15 L10.52,4.16666667 L9.48,4.16666667 L9.48,-4.88498131e-15 Z M9.48,15.8333333 L10.52,15.8333333 L10.52,20 L9.48,20 L9.48,15.8333333 Z M20,9.48 L20,10.52 L15.8333333,10.52 L15.8333333,9.48 L20,9.48 Z M4.16666667,9.48 L4.16666667,10.52 L-3.0331293e-13,10.52 L-3.0331293e-13,9.48 L4.16666667,9.48 Z M16.8406378,2.42397114 L17.5760289,3.15936219 L14.6593622,6.07602886 L13.9239711,5.34063781 L16.8406378,2.42397114 Z M5.34063781,13.9239711 L6.07602886,14.6593622 L3.15936219,17.5760289 L2.42397114,16.8406378 L5.34063781,13.9239711 Z M17.5760289,16.8406378 L16.8406378,17.5760289 L13.9239711,14.6593622 L14.6593622,13.9239711 L17.5760289,16.8406378 Z M6.07602886,5.34063781 L5.34063781,6.07602886 L2.42397114,3.15936219 L3.15936219,2.42397114 L6.07602886,5.34063781 Z" id="path-1"></path>
    </defs>
    <g id="Icons/spinner" stroke="none" stroke-width="1" fill="none" fill-rule="evenodd">
        <g id="Spinner">
            <mask id="mask-2" fill="white">
                <use xlink:href="#path-1"></use>
            </mask>
            <g id="Combined-Shape" fill-rule="nonzero"></g>
            <g id="colour/black" mask="url(#mask-2)" fill="#000000">
                <g transform="translate(-25.000000, -29.000000)" id="Rectangle-Copy">
                    <rect x="0" y="0" width="71" height="71"></rect>
                </g>
            </g>
        </g>
    </g>
</svg>