<?xml version="1.0" encoding="UTF-8"?>
<svg width="22px" height="26px" viewBox="0 0 22 26" version="1.1" xmlns="http://www.w3.org/2000/svg" xmlns:xlink="http://www.w3.org/1999/xlink">
    <title>Bag</title>
    <defs>
        <path d="M6.142295,6.84526986 L6.142295,5.37391326 C6.142295,2.7426164 8.23235715,0.584400047 10.8000004,0.584400047 C13.3676437,0.584400047 15.4577059,2.7426164 15.4577059,5.37391326 L15.4577059,6.84526986 L21.0526468,6.84526986 L21.0145512,7.49680306 L20.2065262,21.3153158 C20.0906669,23.8276986 18.058589,25.815601 15.6000006,25.815601 L6.00000024,25.815601 C3.533985,25.815601 1.45846203,23.820205 1.34321762,21.3206517 L0.54973095,6.84526986 L6.142295,6.84526986 Z M7.37349501,6.84526986 L14.2265059,6.84526986 L14.2265059,5.37391326 C14.2265059,3.41390559 12.6786731,1.81560005 10.8000004,1.81560005 C8.92132774,1.81560005 7.37349501,3.41390559 7.37349501,5.37391326 L7.37349501,6.84526986 Z M6.142295,8.07646986 L1.85026806,8.07646986 L2.57284128,21.2585989 C2.65813064,23.1080801 4.1937346,24.584401 6.00000024,24.584401 L15.6000006,24.584401 C17.394044,24.584401 18.8907851,23.1201978 18.9770293,21.2510242 L19.7473548,8.07646986 L15.4577059,8.07646986 L15.4577059,12.6782614 L14.2265059,12.6782614 L14.2265059,8.07646986 L7.37349501,8.07646986 L7.37349501,12.6782614 L6.142295,12.6782614 L6.142295,8.07646986 Z" id="path-1"></path>
    </defs>
    <g id="Symbols" stroke="none" stroke-width="1" fill="none" fill-rule="evenodd">
        <g id="Button/Label-with-icon" transform="translate(0.000000, -1.000000)">
            <g id="Group" transform="translate(67.000000, 13.000000) rotate(-180.000000) translate(-67.000000, -13.000000) ">
                <g id="Icon/Bag" transform="translate(122.000000, 13.000000) rotate(-180.000000) translate(-122.000000, -13.000000) translate(110.000000, 1.000000)">
                    <g id="Shopping-Bag">
                        <mask id="mask-2" fill="white">
                            <use xlink:href="#path-1"></use>
                        </mask>
                        <g id="Combined-Shape" fill-rule="nonzero"></g>
                        <g id="Color/White" mask="url(#mask-2)" fill="#FFFFFF">
                            <g transform="translate(-46.800002, -48.000002)" id="Rectangle">
                                <rect x="0" y="0" width="140.400006" height="120.000005"></rect>
                            </g>
                        </g>
                    </g>
                </g>
            </g>
        </g>
    </g>
</svg>