<?xml version="1.0" encoding="UTF-8"?>
<svg width="21px" height="20px" viewBox="0 0 21 20" version="1.1" xmlns="http://www.w3.org/2000/svg" xmlns:xlink="http://www.w3.org/1999/xlink">
    <title>Active profile</title>
    <g id="Symbols" stroke="none" stroke-width="1" fill="none" fill-rule="evenodd">
        <g id="Header" transform="translate(-1077.000000, -73.000000)">
            <g id="Buttons/Link-Groups" transform="translate(1078.000000, 74.000000)">
                <g id="Group">
                    <g id="Icon/Profile" stroke="#000000">
                        <g id="User-Alt">
                            <circle id="Oval" stroke-width="0.923399939" cx="8.99999976" cy="8.99999976" r="8.99999976"></circle>
                            <path d="M11.7391301,5.08695639 C11.7782606,3.5999999 10.6043475,2.38695646 9.11739106,2.34782602 C9.07826063,2.34782602 9.0391302,2.34782602 8.99999976,2.34782602 C7.51304328,2.30869559 6.29999983,3.4826086 6.2608694,4.96956509 C6.2608694,5.00869552 6.2608694,5.04782595 6.2608694,5.08695639 C6.2608694,5.39999986 6.57391287,6.92608677 6.57391287,6.92608677 C6.80869547,8.25652152 7.66956501,9.3913041 8.99999976,9.3913041 C10.3304345,9.3913041 11.1913041,8.29565195 11.4260867,6.92608677 C11.4260867,6.92608677 11.7391301,5.39999986 11.7391301,5.08695639 Z" id="Path" stroke-width="0.923399939"></path>
                            <path d="M2.34782602,15.065217 L2.34782602,14.791304 C2.34782602,13.5782605 3.247826,12.6782605 4.46086945,12.3652171 L8.99999976,11.543478 L13.5782605,12.4043475 C14.7521735,12.7565214 15.6521735,13.5782605 15.6521735,14.8304344 L15.6521735,15.1043474" id="Path" stroke-width="0.923399939"></path>
                        </g>
                    </g>
                </g>
            </g>
        </g>
    </g>
</svg>
