<?xml version="1.0" encoding="UTF-8"?>
<svg width="104px" height="28px" viewBox="0 0 104 28" version="1.1" xmlns="http://www.w3.org/2000/svg" xmlns:xlink="http://www.w3.org/1999/xlink">
    <title>Group</title>
    <desc>Created with Sketch.</desc>
    <defs>
        <polygon id="path-1" points="0.85 0.25209315 21.295 0.25209315 21.295 27 0.85 27"></polygon>
        <polygon id="path-3" points="0.687 0.2523 20.936 0.2523 20.936 27 0.687 27"></polygon>
    </defs>
    <g id="Symbols" stroke="none" stroke-width="1" fill="none" fill-rule="evenodd">
        <g id="Header/Desktop" transform="translate(-661.000000, -28.000000)">
            <g id="Group" transform="translate(661.000000, 28.000000)">
                <polygon id="Fill-1" fill="#201A22" points="21.406 -2.18491891e-13 14.383 10.316 14.826 0.607 10.19 0.613 1.42108547e-14 27.355 4.455 27.35 10.646 11.098 10.184 21.276 10.229 21.278 17.543 11.067 11.335 27.355 15.721 27.35 26.143 -2.18491891e-13"></polygon>
                <path d="M43.8988,0.6129 L28.6478,27.3559 L33.0858,27.3509 L36.0328,21.8839 L40.2578,21.8789 L39.0748,27.3559 L43.7688,27.3479 L48.8978,0.6079 L43.8988,0.6129 Z M43.1078,8.7909 L41.1558,17.6289 L38.2858,17.6329 L43.1078,8.7909 Z" id="Fill-2" fill="#201A22"></path>
                <g id="Group-9" transform="translate(54.999500, 0.355500)">
                    <g id="Group-5" transform="translate(27.000000, 0.000000)">
                        <mask id="mask-2" fill="white">
                            <use xlink:href="#path-1"></use>
                        </mask>
                        <g id="Clip-4"></g>
                        <path d="M15.696,9.3631 L15.667,9.4401 C14.429,12.6921 12.397,14.1101 10.404,14.2281 L10.365,14.2271 L14.069,4.5081 L14.222,4.50609794 C16.248,4.5041 16.993,5.9571 15.696,9.3631 M15.223,0.25209315 L11.039,0.2561 L0.85,27.0001 L5.492,26.9931 L8.733,18.4891 L8.805,18.4891 C13.646,18.1401 18.073,15.2871 20.36,9.2851 L20.389,9.2101 C22.763,2.9791 20.275,0.2471 15.223,0.25209315" id="Fill-3" fill="#201A22" mask="url(#mask-2)"></path>
                    </g>
                    <g id="Group-8">
                        <mask id="mask-4" fill="white">
                            <use xlink:href="#path-3"></use>
                        </mask>
                        <g id="Clip-7"></g>
                        <path d="M13.194,17.2733 L10.325,17.2773 L15.146,8.4353 L13.194,17.2733 Z M0.687,27.0003 L5.125,26.9963 L8.072,21.5283 L12.296,21.5233 L11.114,27.0003 L15.808,26.9933 L20.936,0.2523 L15.938,0.2573 L0.687,27.0003 Z" id="Fill-6" fill="#201A22" mask="url(#mask-4)"></path>
                    </g>
                </g>
            </g>
        </g>
    </g>
</svg>
