<?xml version="1.0" encoding="utf-8"?>
<!-- Generator: Adobe Illustrator 24.2.1, SVG Export Plug-In . SVG Version: 6.00 Build 0)  -->
<svg version="1.1" id="Layer_1" xmlns="http://www.w3.org/2000/svg" xmlns:xlink="http://www.w3.org/1999/xlink" x="0px" y="0px"
	 viewBox="0 0 40 40" style="enable-background:new 0 0 40 40;" xml:space="preserve">
<style type="text/css">
	.st0{fill:#FFFFFF;stroke:#010101;stroke-width:0.294;stroke-miterlimit:10;}
	.st1{fill:#010101;}
</style>
<path class="st0" d="M19.8,0.4c-8,0-14.4,6.5-14.4,14.4c0,7.9,9.2,18.1,12.9,23.9c0.7,1.1,2.3,1.1,3,0c3.7-5.8,12.9-16,12.9-23.9
	C34.3,6.8,27.8,0.4,19.8,0.4z"/>
<g id="MAAP_Logo_Straight_1_">
	<g>
		<polygon class="st1" points="20.9,8.7 23,8.8 23,7.8 17.2,5.6 17.2,6.6 20.7,7.9 18.5,7.8 18.5,7.8 20.7,9.4 17.2,8.1 17.2,9.1 
			23,11.3 23,10.3 		"/>
		<path class="st1" d="M17.2,11.9l0,1l1.2,0.6l0,0.9l-1.2-0.3l0,1l5.9,1.1l0-1.1L17.2,11.9z M19.2,14.6l0-0.6l1.9,1.1L19.2,14.6z"/>
		<path class="st1" d="M23,26.8l0-0.9l-5.8-2.2l0,1l1.8,0.7l0,0c0.1,1.1,0.7,2,2,2.5l0,0C22.4,28.5,23,27.9,23,26.8z M21,26.9
			L21,26.9c-0.7-0.3-1-0.7-1.1-1.2l0,0l2.1,0.8l0,0C22.1,27,21.8,27.2,21,26.9z"/>
		<path class="st1" d="M17.2,17.8l0,1l1.2,0.6l0,0.9L17.2,20l0,1l5.9,1.1l0-1.1L17.2,17.8z M19.3,20.5l0-0.6l1.9,1.1L19.3,20.5z"/>
	</g>
</g>
</svg>
