<?xml version="1.0" encoding="UTF-8"?>
<svg width="20px" height="20px" viewBox="0 0 20 20" version="1.1" xmlns="http://www.w3.org/2000/svg" xmlns:xlink="http://www.w3.org/1999/xlink">
    <title>Icon/Flag</title>
    <g id="Symbols" stroke="none" stroke-width="1" fill="none" fill-rule="evenodd">
        <g id="Header" transform="translate(-301.000000, -69.000000)">
            <g id="Icon/Flag" transform="translate(302.000000, 70.000000)">
                <circle id="Oval" stroke="#F1F1F1" stroke-width="0.536371195" cx="9.05126445" cy="9.05126445" r="9.31945004"></circle>
                <g id="Group" stroke-width="1" fill-rule="evenodd">
                    <g id="Layer_1">
                        <path d="M18.1025289,9.06890824 C18.1025289,14.0580075 14.0501081,18.1025289 9.05126445,18.1025289 C4.0524208,18.1025289 0,14.0580075 0,9.06890824 C0,9.07102549 9.05126445,0.0363109206 9.05126445,0.0352875808 C14.0501081,0.0352875808 18.1025289,4.07980893 18.1025289,9.06890824 Z" id="Path" fill="#0052B4"></path>
                        <g id="Group" fill="#F0F0F0">
                            <path d="M9.08497603,0.0676114342 C9.08357603,0.0676114342 9.08207603,0.0677114342 9.08067603,0.0677114342 L9.08497603,0.0676114342 L9.08497603,0.0676114342 Z" id="Path"></path>
                            <path d="M9.03722659,9.12342845 L9.10572659,9.12342845 C9.10572659,9.10022845 9.10572659,9.07802845 9.10572659,9.05492845 C9.08292659,9.07782845 9.06012659,9.10062845 9.03722659,9.12342845 Z" id="Path"></path>
                            <path d="M9.0512998,4.74850858 C9.0512998,3.15897951 9.0512998,2.11739599 9.0512998,0.0353228684 L9.04974412,0.0353228684 C4.05157225,0.0361344827 0,4.08026767 0,9.06890824 L4.72239116,9.06890824 L4.72239116,6.41485872 L7.38162436,9.06890824 L9.0270806,9.06890824 C9.03517724,9.06086267 9.04323852,9.0528171 9.0512998,9.04473624 C9.0512998,8.43613134 9.0512998,7.89309076 9.0512998,7.40259339 L6.39203124,4.74850858 L9.0512998,4.74850858 Z" id="Path"></path>
                        </g>
                        <g id="Group" transform="translate(1.166765, 1.199778)" fill="#D80027">
                            <path d="M3.41243277,0.0137974441 C1.99679379,0.818318996 0.819917275,1.99290141 0.0138243922,3.40578085 L0.0138243922,7.86913049 L2.37503765,7.86913049 L2.37503765,2.37044323 L2.37503765,2.37040795 L7.88449989,2.37040795 C7.88449989,1.62714563 7.88449989,0.919065039 7.88449989,0.0137974441 L3.41243277,0.0137974441 Z" id="Path"></path>
                            <path d="M7.88449989,6.75824217 L4.66871999,3.54875044 L3.55566195,3.54875044 C3.55566195,3.54875044 3.55566195,3.54875044 3.55566195,3.54875044 L7.88449989,7.86913049 L7.88449989,7.86913049 C7.88449989,7.86913049 7.88449989,7.10321355 7.88449989,6.75824217 Z" id="Path"></path>
                        </g>
                        <g id="Group" transform="translate(3.429581, 3.952209)" fill="#F0F0F0">
                            <polygon id="Path" points="2.02928642 6.68777287 2.52604527 7.72445141 3.647801 7.46568758 3.14545582 8.49968427 4.04754161 9.21365789 2.92437162 9.46631697 2.92751834 10.6154217 2.02928642 9.89650787 1.13108985 10.6154217 1.13423658 9.46631697 0.0110312285 9.21365789 0.913152371 8.49968427 0.410736481 7.46568758 1.53256292 7.72445141"></polygon>
                            <polygon id="Path" points="10.1220007 8.65159731 10.3703802 9.16993658 10.9312757 9.04053702 10.6800678 9.55753537 11.131146 9.91453982 10.5695433 10.0408694 10.571099 10.6154217 10.1220007 10.2559472 9.67290246 10.6154217 9.67445815 10.0408694 9.11289083 9.91453982 9.56393372 9.55753537 9.31276113 9.04053702 9.87362132 9.16993658"></polygon>
                            <polygon id="Path" points="7.811418 3.15287476 8.05976207 3.67124932 8.62065761 3.54181447 8.36948502 4.05881282 8.82052792 4.41581727 8.2589606 4.54214681 8.26048093 5.1166992 7.811418 4.75722462 7.36231971 5.1166992 7.36384004 4.54214681 6.80227273 4.41581727 7.25331562 4.05881282 7.00214303 3.54181447 7.56303858 3.67124932"></polygon>
                            <polygon id="Path" points="10.1220007 0.0107274246 10.3703802 0.529101985 10.9312757 0.399702426 10.6801031 0.916700771 11.1311107 1.27366994 10.5695433 1.40003476 10.571099 1.97458715 10.1220007 1.61511257 9.67290246 1.97458715 9.67445815 1.40003476 9.11289083 1.27366994 9.56389837 0.916700771 9.31276113 0.399702426 9.87362132 0.529101985"></polygon>
                            <polygon id="Path" points="12.1402913 2.36733793 12.3886354 2.88571249 12.9495309 2.75627764 12.6983583 3.27327598 13.1494012 3.63028044 12.5877985 3.75664527 12.5893542 4.33116237 12.1402913 3.97172307 11.691193 4.33116237 11.6927133 3.75664527 11.131146 3.63028044 11.5821889 3.27327598 11.3310163 2.75627764 11.8918765 2.88571249"></polygon>
                            <polygon id="Path" points="10.6971096 5.1166992 10.8924543 5.7167998 11.5246992 5.7167998 11.0131967 6.08770756 11.2086121 6.68777287 10.6971096 6.31690039 10.1856424 6.68777287 10.3809871 6.08770756 9.86951997 5.7167998 10.5017296 5.7167998"></polygon>
                        </g>
                    </g>
                </g>
            </g>
        </g>
    </g>
</svg>