<?xml version="1.0" encoding="UTF-8"?>
<svg width="25px" height="25px" viewBox="0 0 25 25" version="1.1" xmlns="http://www.w3.org/2000/svg" xmlns:xlink="http://www.w3.org/1999/xlink">
    <title>Canada</title>
    <g id="Desktop-V3" stroke="none" stroke-width="1" fill="none" fill-rule="evenodd">
        <g id="Basic-Wireframe:-Desktop-Copy" transform="translate(-674.000000, -749.000000)">
            <g id="Group-3" transform="translate(570.000000, 578.000000)">
                <g id="Icons/country/canada" transform="translate(104.000000, 171.000000)">
                    <g id="Group">
                        <g id="Layer_1">
                            <circle id="Oval" fill="#F0F0F0" cx="12.4811273" cy="12.4811273" r="12.4811273"></circle>
                            <g id="Group" transform="translate(0.000000, 1.218860)" fill="#D80027">
                                <path d="M24.9622547,11.2622673 C24.9622547,6.3139878 22.0825758,2.03842162 17.9076875,0.0195992703 L17.9076875,22.5048865 C22.0825758,20.4861129 24.9622547,16.2105467 24.9622547,11.2622673 Z" id="Path"></path>
                                <path d="M0,11.2622673 C0,16.2105467 2.87967885,20.4861129 7.0545672,22.5049352 L7.0545672,0.0195992703 C2.87967885,2.03842162 0,6.3139878 0,11.2622673 Z" id="Path"></path>
                                <polygon id="Path" points="14.6517709 12.8902255 16.8223657 11.8049038 15.7370927 11.2622673 15.7370927 10.1769455 13.5664491 11.2622673 14.6517709 9.09162369 13.5664491 9.09162369 12.4811273 7.4636654 11.3958056 9.09162369 10.3104838 9.09162369 11.3958056 11.2622673 9.225162 10.1769455 9.225162 11.2622673 8.13988898 11.8049038 10.3104838 12.8902255 9.76784727 13.9755473 11.9384908 13.9755473 11.9384908 15.6035056 13.0237639 15.6035056 13.0237639 13.9755473 15.1944074 13.9755473"></polygon>
                            </g>
                        </g>
                    </g>
                </g>
            </g>
        </g>
    </g>
</svg>