<?xml version="1.0" encoding="UTF-8"?>
<svg width="26px" height="25px" viewBox="0 0 26 25" version="1.1" xmlns="http://www.w3.org/2000/svg" xmlns:xlink="http://www.w3.org/1999/xlink">
    <title>Germany</title>
    <g id="Desktop-V3" stroke="none" stroke-width="1" fill="none" fill-rule="evenodd">
        <g id="Basic-Wireframe:-Desktop-Copy" transform="translate(-743.000000, -684.000000)">
            <g id="Group-3" transform="translate(570.000000, 578.000000)">
                <g id="Icons/country/germany" transform="translate(173.333333, 106.000000)">
                    <g id="Group">
                        <g id="Layer_1">
                            <path d="M0.77631637,16.8223657 C2.53981191,21.57514 7.11468138,24.9622547 12.4811273,24.9622547 C17.8475733,24.9622547 22.4224428,21.57514 24.1859383,16.8223657 L12.4811273,15.7370927 L0.77631637,16.8223657 Z" id="Path" fill="#FFDA44"></path>
                            <path d="M12.4811273,0 C7.11468138,0 2.53981191,3.38706593 0.77631637,8.13988898 L12.4811273,9.225162 L24.1859383,8.13984022 C22.4224428,3.38706593 17.8475733,0 12.4811273,0 Z" id="Path" fill="#000000"></path>
                            <path d="M0.77631637,8.13988898 C0.274633556,9.49199485 0,10.9544319 0,12.4811273 C0,14.0078227 0.274633556,15.4702598 0.77631637,16.8223657 L24.1859871,16.8223657 C24.6876699,15.4702598 24.9622547,14.0078227 24.9622547,12.4811273 C24.9622547,10.9544319 24.6876699,9.49199485 24.1859383,8.13988898 L0.77631637,8.13988898 Z" id="Path" fill="#D80027"></path>
                        </g>
                    </g>
                </g>
            </g>
        </g>
    </g>
</svg>