<?xml version="1.0" encoding="UTF-8"?>
<svg width="26px" height="25px" viewBox="0 0 26 25" version="1.1" xmlns="http://www.w3.org/2000/svg" xmlns:xlink="http://www.w3.org/1999/xlink">
    <title>Newzealand</title>
    <g id="Desktop-V3" stroke="none" stroke-width="1" fill="none" fill-rule="evenodd">
        <g id="Basic-Wireframe:-Desktop-Copy" transform="translate(-673.000000, -684.000000)">
            <g id="Group-3" transform="translate(570.000000, 578.000000)">
                <g id="Icons/country/newzealand" transform="translate(103.666667, 106.000000)">
                    <g id="Group">
                        <g id="Layer_1">
                            <path d="M24.9622547,12.505457 C24.9622547,19.3851128 19.37422,24.9622547 12.4811273,24.9622547 C5.58803473,24.9622547 0,19.3851128 0,12.505457 C0,12.5084252 12.4811273,0.0500218283 12.4811273,0.048659366 C19.37422,0.048659366 24.9622547,5.62580124 24.9622547,12.505457 Z" id="Path" fill="#0052B4"></path>
                            <g id="Group" fill="#F0F0F0">
                                <path d="M12.5078519,0.074329683 C12.5064519,0.074329683 12.5049519,0.074329683 12.5035519,0.074329683 L12.5078519,0.074329683 L12.5078519,0.074329683 Z" id="Path"></path>
                                <path d="M12.4558018,12.5487115 L12.5243018,12.5487115 C12.5243018,12.5257115 12.5243018,12.5033115 12.5243018,12.4802115 C12.5015018,12.5031115 12.4787018,12.5259115 12.4558018,12.5487115 Z" id="Path"></path>
                                <path d="M12.4811761,6.54784757 C12.4811761,4.35598643 12.4811761,2.91980525 12.4811761,0.048659366 L12.4790309,0.048659366 C5.58686463,0.0498271908 0,5.62643382 0,12.505457 L6.51188193,12.505457 L6.51188193,8.84573746 L10.1787981,12.505457 L12.4477793,12.505457 C12.4588953,12.4943627 12.4700601,12.4832684 12.4811761,12.4721254 C12.4811761,11.6328973 12.4811761,10.8840783 12.4811761,10.2076645 L8.81421113,6.54784757 L12.4811761,6.54784757 Z" id="Path"></path>
                            </g>
                            <g id="Group" transform="translate(1.608895, 1.654418)" fill="#D80027">
                                <path d="M4.70553127,0.0190258121 C2.7534537,1.12841069 1.13061462,2.74808635 0.0190629718,4.6963587 L0.0190629718,10.8510386 L3.27502831,10.8510386 L3.27502831,3.26874156 L3.27502831,3.26864424 L10.872232,3.26864424 C10.872232,2.24373202 10.872232,1.26733318 10.872232,0.0190258121 L4.70553127,0.0190258121 Z" id="Path"></path>
                                <path d="M10.872232,9.31919309 L6.43787274,4.89347779 C6.43787274,4.89347779 4.90303536,4.89357511 4.90303536,4.89347779 L4.90303536,4.89357511 L10.872232,10.8510386 L10.872232,10.8510386 C10.872232,10.8510386 10.872232,9.79478973 10.872232,9.31919309 Z" id="Path"></path>
                                <polygon id="Path" points="20.0053945 7.63752541 20.2747625 8.46502658 21.14654 8.46502658 20.4412588 8.97643652 20.7106757 9.80388904 20.0053945 9.29252776 19.3000645 9.80388904 19.5694813 8.97643652 18.8641514 8.46502658 19.7359289 8.46502658"></polygon>
                                <polygon id="Path" points="16.8890617 13.5950862 17.293187 14.8363866 18.6008289 14.8363866 17.5428583 15.6034529 17.9470323 16.8447046 16.8890617 16.0775897 15.8310912 16.8447046 16.2352652 15.6034529 15.1772946 14.8363866 16.4849365 14.8363866"></polygon>
                                <polygon id="Path" points="17.0067549 3.84632823 17.3435503 4.88077769 18.43326 4.88077769 17.5515853 5.51991846 17.8883807 6.55431926 17.0067549 5.91498386 16.1251777 6.55431926 16.4619244 5.51991846 15.5803473 4.88077769 16.6700082 4.88077769"></polygon>
                                <polygon id="Path" points="14.0082128 7.60142016 14.4122893 8.84272058 15.7199799 8.84272058 14.6620093 9.60978682 15.0661833 10.8510386 14.0082128 10.0839237 12.9502422 10.8510386 13.3544162 9.60978682 12.2964457 8.84272058 13.6040875 8.84272058"></polygon>
                            </g>
                        </g>
                    </g>
                </g>
            </g>
        </g>
    </g>
</svg>