<?xml version="1.0" encoding="UTF-8"?>
<svg width="29px" height="29px" viewBox="0 0 29 29" version="1.1" xmlns="http://www.w3.org/2000/svg" xmlns:xlink="http://www.w3.org/1999/xlink">
    <title>Group</title>
    <g id="Desktop-V3" stroke="none" stroke-width="1" fill="none" fill-rule="evenodd">
        <g id="Basic-Wireframe:-Desktop-Copy" transform="translate(-602.000000, -681.000000)">
            <g id="Group-3" transform="translate(570.000000, 578.000000)">
                <g id="Group" transform="translate(32.000000, 103.000000)">
                    <circle id="Oval" stroke="#000000" stroke-width="1.22400003" cx="14.5" cy="14.5" r="13.888"></circle>
                    <g id="Icons/country/australia" transform="translate(2.000000, 2.000000)">
                        <g id="Group">
                            <g id="Layer_1">
                                <path d="M24.9622547,12.505457 C24.9622547,19.3851128 19.37422,24.9622547 12.4811273,24.9622547 C5.58803473,24.9622547 0,19.3851128 0,12.505457 C0,12.5083766 12.4811273,0.0500704876 12.4811273,0.048659366 C19.37422,0.048659366 24.9622547,5.62580124 24.9622547,12.505457 Z" id="Path" fill="#0052B4"></path>
                                <g id="Group" fill="#F0F0F0">
                                    <path d="M12.5078519,0.0743040127 C12.5064519,0.0743040127 12.5049519,0.0744040127 12.5035519,0.0744040127 L12.5078519,0.0743040127 L12.5078519,0.0743040127 Z" id="Path"></path>
                                    <path d="M12.4558018,12.5487115 L12.5243018,12.5487115 C12.5243018,12.5255115 12.5243018,12.5033115 12.5243018,12.4802115 C12.5015018,12.5031115 12.4787018,12.5259115 12.4558018,12.5487115 Z" id="Path"></path>
                                    <path d="M12.4811761,6.54789623 C12.4811761,4.35603509 12.4811761,2.91975659 12.4811761,0.0487080254 L12.4790309,0.0487080254 C5.58686463,0.0498271908 0,5.62643382 0,12.505457 L6.51188193,12.505457 L6.51188193,8.8456888 L10.1787981,12.505457 L12.4477793,12.505457 C12.4589441,12.4943627 12.4700601,12.4832684 12.4811761,12.4721254 C12.4811761,11.6328973 12.4811761,10.8840783 12.4811761,10.2077131 L8.81421113,6.54789623 L12.4811761,6.54789623 Z" id="Path"></path>
                                </g>
                                <g id="Group" transform="translate(1.608895, 1.654418)" fill="#D80027">
                                    <path d="M4.70553127,0.0190258121 C2.7534537,1.12841069 1.13061462,2.74808635 0.0190629718,4.6963587 L0.0190629718,10.8510386 L3.27502831,10.8510386 L3.27502831,3.2686929 L3.27502831,3.26864424 L10.872232,3.26864424 C10.872232,2.24373202 10.872232,1.26733318 10.872232,0.0190258121 L4.70553127,0.0190258121 Z" id="Path"></path>
                                    <path d="M10.872232,9.31919309 L6.43787274,4.89350482 L4.90303536,4.89350482 C4.90303536,4.89350482 4.90303536,4.89350482 4.90303536,4.89350482 L10.872232,10.8510386 L10.872232,10.8510386 C10.872232,10.8510386 10.872232,9.79488705 10.872232,9.31919309 Z" id="Path"></path>
                                </g>
                                <g id="Group" transform="translate(4.729177, 5.449849)" fill="#F0F0F0">
                                    <polygon id="Path" points="2.798259 9.22202034 3.48325837 10.6515352 5.03008934 10.2947161 4.33738677 11.7205328 5.58130663 12.7050577 4.03252548 13.0534588 4.03686463 14.6380024 2.798259 13.6466651 1.55970213 14.6380024 1.56404127 13.0534588 0.015211374 12.7050577 1.25917998 11.7205328 0.566379908 10.2947161 2.11330838 10.6515352"></polygon>
                                    <polygon id="Path" points="13.9576057 11.9300114 14.3001054 12.6447688 15.0735453 12.4663349 14.7271452 13.1792433 15.3491539 13.6715301 14.5747389 13.8457306 14.5768841 14.6380024 13.9576057 14.1423094 13.3383273 14.6380024 13.3404725 13.8457306 12.5661063 13.6715301 13.1880662 13.1792433 12.8417149 12.4663349 13.615106 12.6447688"></polygon>
                                    <polygon id="Path" points="10.7714567 4.34761702 11.1139076 5.06242311 11.8873475 4.88394055 11.5409962 5.59684892 12.1629561 6.08913573 11.3885899 6.26333626 11.3906864 7.05560805 10.7714567 6.55991509 10.1521782 7.05560805 10.1542747 6.26333626 9.37990848 6.08913573 10.0018684 5.59684892 9.65551712 4.88394055 10.428957 5.06242311"></polygon>
                                    <polygon id="Path" points="13.9576057 0.0147924473 14.3001054 0.729598532 15.0735453 0.551164637 14.727194 1.26407301 15.3491051 1.75631115 14.5747389 1.93056034 14.5768841 2.72283214 13.9576057 2.22713918 13.3383273 2.72283214 13.3404725 1.93056034 12.5661063 1.75631115 13.1880174 1.26407301 12.8417149 0.551164637 13.615106 0.729598532"></polygon>
                                    <polygon id="Path" points="16.7407021 3.26441088 17.083153 3.97921696 17.8565929 3.80073441 17.5102416 4.51364278 18.1322015 5.00592958 17.3577866 5.18017877 17.3599318 5.97240191 16.7407021 5.47675761 16.1214237 5.97240191 16.1235201 5.18017877 15.3491539 5.00592958 15.9711138 4.51364278 15.6247625 3.80073441 16.3981536 3.97921696"></polygon>
                                    <polygon id="Path" points="14.7506448 7.05560805 15.0200129 7.88310923 15.8918392 7.88310923 15.1865092 8.39456782 15.4559748 9.22202034 14.7506448 8.7106104 14.0453636 9.22202034 14.3147317 8.39456782 13.6094505 7.88310923 14.481228 7.88310923"></polygon>
                                </g>
                            </g>
                        </g>
                    </g>
                </g>
            </g>
        </g>
    </g>
</svg>