<?xml version="1.0" encoding="UTF-8"?>
<svg width="25px" height="25px" viewBox="0 0 25 25" version="1.1" xmlns="http://www.w3.org/2000/svg" xmlns:xlink="http://www.w3.org/1999/xlink">
    <title>UK</title>
    <g id="Desktop-V3" stroke="none" stroke-width="1" fill="none" fill-rule="evenodd">
        <g id="Basic-Wireframe:-Desktop-Copy" transform="translate(-744.000000, -749.000000)">
            <g id="Group-3" transform="translate(570.000000, 578.000000)">
                <g id="Icons/country/uk" transform="translate(174.000000, 171.000000)">
                    <g id="Group">
                        <g id="Layer_1">
                            <circle id="Oval" fill="#F0F0F0" cx="12.4811273" cy="12.4811273" r="12.4811273"></circle>
                            <g id="Group" transform="translate(0.390035, 0.390035)" fill="#0052B4">
                                <path d="M2.19004781,4.49232827 C1.20964551,5.76788973 0.470382487,7.23807877 0.0399298567,8.83522428 L6.53294383,8.83522428 L2.19004781,4.49232827 Z" id="Path"></path>
                                <path d="M24.1422544,8.83522428 C23.7118017,7.23812753 22.97249,5.76793848 21.9921364,4.49237702 L17.6493379,8.83522428 L24.1422544,8.83522428 Z" id="Path"></path>
                                <path d="M0.0399298567,15.3471062 C0.470431241,16.944203 1.20969426,18.414392 2.19004781,19.6899047 L6.53279757,15.3471062 L0.0399298567,15.3471062 L0.0399298567,15.3471062 Z" id="Path"></path>
                                <path d="M19.689856,2.19009657 C18.4142945,1.20969426 16.9441542,0.470431241 15.3470087,0.0399298567 L15.3470087,6.53289508 L19.689856,2.19009657 Z" id="Path"></path>
                                <path d="M4.49232827,21.9920877 C5.76788973,22.97249 7.23807877,23.711753 8.83517553,24.1422544 L8.83517553,17.6493379 L4.49232827,21.9920877 Z" id="Path"></path>
                                <path d="M8.83512677,0.0399298567 C7.23803002,0.470431241 5.76784097,1.20969426 4.49232827,2.19004781 L8.83512677,6.53284632 L8.83512677,0.0399298567 Z" id="Path"></path>
                                <path d="M15.3470575,24.1422544 C16.9441542,23.711753 18.4143433,22.97249 19.689856,21.9921364 L15.3470575,17.6493379 L15.3470575,24.1422544 Z" id="Path"></path>
                                <path d="M17.6493379,15.3471062 L21.9921364,19.6899535 C22.97249,18.4144408 23.7118017,16.944203 24.1422544,15.3471062 L17.6493379,15.3471062 Z" id="Path"></path>
                            </g>
                            <g id="Group" fill="#D80027">
                                <path d="M24.8566039,10.8531691 L14.1091831,10.8531691 L14.1091344,10.8531691 L14.1091344,0.105650793 C13.5762,0.0362732763 13.0328809,0 12.4811273,0 C11.9292762,0 11.3860547,0.0362732763 10.8531691,0.105650793 L10.8531691,10.8530715 L10.8531691,10.8531203 L0.105650793,10.8531203 C0.0362732763,11.3860547 0,11.9293738 0,12.4811273 C0,13.0329784 0.0362732763,13.5762 0.105650793,14.1090856 L10.8530715,14.1090856 L10.8531203,14.1090856 L10.8531203,24.8566039 C11.3860547,24.9259814 11.9292762,24.9622547 12.4811273,24.9622547 C13.0328809,24.9622547 13.5762,24.9260302 14.1090856,24.8566039 L14.1090856,14.1091831 L14.1090856,14.1091344 L24.8566039,14.1091344 C24.9259814,13.5762 24.9622547,13.0329784 24.9622547,12.4811273 C24.9622547,11.9293738 24.9259814,11.3860547 24.8566039,10.8531691 Z" id="Path"></path>
                                <path d="M15.7370927,15.7370927 L15.7370927,15.7370927 L21.3066007,21.3066495 C21.5627564,21.0505914 21.8071135,20.7828809 22.040257,20.5053709 L17.2719788,15.7370927 L15.7370927,15.7370927 L15.7370927,15.7370927 Z" id="Path"></path>
                                <path d="M9.225162,15.7371414 L9.22506449,15.7371414 L3.65560519,21.3066007 C3.91166332,21.5627564 4.17937375,21.8071135 4.45688381,22.040257 L9.225162,17.2718813 L9.225162,15.7371414 Z" id="Path"></path>
                                <path d="M9.225162,9.22525951 L9.225162,9.225162 L3.65565394,3.65560519 C3.39949831,3.91166332 3.15514123,4.17937375 2.92199768,4.45688381 L7.69032462,9.22525951 L9.225162,9.22525951 L9.225162,9.22525951 Z" id="Path"></path>
                                <path d="M15.7370927,9.22525951 L15.7370927,9.22525951 L21.3066495,3.65565394 C21.0505914,3.39949831 20.7828809,3.15514123 20.5053709,2.92204643 L15.7370927,7.69037338 L15.7370927,9.22525951 L15.7370927,9.22525951 Z" id="Path"></path>
                            </g>
                        </g>
                    </g>
                </g>
            </g>
        </g>
    </g>
</svg>