<?xml version="1.0" encoding="utf-8"?>
<!-- Generator: Adobe Illustrator 24.1.0, SVG Export Plug-In . SVG Version: 6.00 Build 0)  -->
<svg version="1.0" id="Layer_1" xmlns="http://www.w3.org/2000/svg" xmlns:xlink="http://www.w3.org/1999/xlink" x="0px" y="0px"
	 viewBox="0 0 640 410" style="enable-background:new 0 0 640 410;" xml:space="preserve">
<style type="text/css">
	.st0{fill:none;}
	.st1{fill:#000066;}
	.st2{fill:#FFFFFF;}
	.st3{fill:#CC0000;}
</style>
<g transform="translate(80) scale(.94)">
	<g>
		<path class="st1" d="M-85.1,0.2h680.9V436H-85.1V0.2z"/>
		<path class="st2" d="M-85.1,0.2v48.7L519.6,436h76.1v-48.7L-9,0.2H-85.1z M595.7,0.2v48.7L-9,436h-76.1v-48.7L519.6,0.2H595.7z"/>
		<path class="st2" d="M198.6,0.2V436h113.5V0.2H198.6z M-85.1,145.5v145.3h680.9V145.5H-85.1z"/>
		<path class="st3" d="M-85.1,174.5v87.2h680.9v-87.2H-85.1z M221.3,0.2V436h68.1V0.2H221.3z M-85.1,436l227-145.3h50.7L-34.4,436
			H-85.1z M-85.1,0.2l227,145.3H91.1L-85.1,32.7V0.2z M318,145.5L545,0.2h50.7l-227,145.3H318L318,145.5z M595.7,436l-227-145.3
			h50.7l176.2,112.8V436z"/>
	</g>
</g>
</svg>
