<?xml version="1.0" encoding="UTF-8"?>
<svg width="25px" height="25px" viewBox="0 0 25 25" version="1.1" xmlns="http://www.w3.org/2000/svg" xmlns:xlink="http://www.w3.org/1999/xlink">
    <title>USA</title>
    <g id="Desktop-V3" stroke="none" stroke-width="1" fill="none" fill-rule="evenodd">
        <g id="Basic-Wireframe:-Desktop-Copy" transform="translate(-813.000000, -684.000000)">
            <g id="Group-3" transform="translate(570.000000, 578.000000)">
                <g id="Icons/country/usa" transform="translate(243.000000, 106.000000)">
                    <g id="Group">
                        <g id="Layer_1">
                            <circle id="Oval" fill="#F0F0F0" cx="12.4811273" cy="12.4811273" r="12.4811273"></circle>
                            <g id="Group" transform="translate(0.390035, 2.681492)" fill="#D80027">
                                <path d="M11.5484556,9.79963514 L24.5722195,9.79963514 C24.5722195,8.67311589 24.4220559,7.58179732 24.1422544,6.5436698 L11.5484556,6.5436698 L11.5484556,9.79963514 Z" id="Path"></path>
                                <path d="M11.5484556,3.28775321 L22.7403215,3.28775321 C21.9762912,2.0410056 20.9993992,0.939009815 19.8603989,0.0317878713 L11.5484556,0.0317878713 L11.5484556,3.28775321 Z" id="Path"></path>
                                <path d="M12.0910921,22.2807625 C15.0284962,22.2807625 17.7283688,21.2655008 19.8603989,19.5674824 L4.32178536,19.5674824 C6.45381543,21.2655008 9.15368805,22.2807625 12.0910921,22.2807625 Z" id="Path"></path>
                                <path d="M1.44186273,16.3115171 L22.7403215,16.3115171 C23.3537006,15.3106379 23.8293974,14.2165891 24.1422544,13.0555517 L0.0399298567,13.0555517 C0.352786865,14.2165891 0.828483582,15.3106379 1.44186273,16.3115171 Z" id="Path"></path>
                            </g>
                            <path d="M5.78149221,1.94910355 L6.91888369,1.94910355 L5.86091313,2.71771673 L6.26503838,3.96139281 L5.20711658,3.19277963 L4.14919477,3.96139281 L4.4982763,2.88699201 C3.56677467,3.66291835 2.75033342,4.57199296 2.07752265,5.58491445 L2.44196182,5.58491445 L1.76851724,6.07416489 C1.66359776,6.2491932 1.56296867,6.42700051 1.46653246,6.60744056 L1.78811651,7.59720371 L1.18814482,7.16129059 C1.0390051,7.47726788 0.902590276,7.80036331 0.77997295,8.13018685 L1.1342712,9.22072535 L2.44196182,9.22072535 L1.38399126,9.98933853 L1.78811651,11.2330146 L0.730194704,10.4644014 L0.0964849649,10.924838 C0.0330554857,11.4347116 0,11.9540435 0,12.4811273 L12.4811273,12.4811273 C12.4811273,5.58803473 12.4811273,4.77539633 12.4811273,0 C10.0155196,0 7.71709079,0.715227102 5.78149221,1.94910355 Z M6.26503838,11.2330146 L5.20711658,10.4644014 L4.14919477,11.2330146 L4.55332002,9.98933853 L3.49534946,9.22072535 L4.80304008,9.22072535 L5.20711658,7.97704927 L5.61119308,9.22072535 L6.91888369,9.22072535 L5.86091313,9.98933853 L6.26503838,11.2330146 Z M5.86091313,6.35352763 L6.26503838,7.59720371 L5.20711658,6.82859054 L4.14919477,7.59720371 L4.55332002,6.35352763 L3.49534946,5.58491445 L4.80304008,5.58491445 L5.20711658,4.34123837 L5.61119308,5.58491445 L6.91888369,5.58491445 L5.86091313,6.35352763 Z M10.7419603,11.2330146 L9.68403845,10.4644014 L8.62611665,11.2330146 L9.0302419,9.98933853 L7.97227134,9.22072535 L9.27996195,9.22072535 L9.68403845,7.97704927 L10.0881149,9.22072535 L11.3958056,9.22072535 L10.337835,9.98933853 L10.7419603,11.2330146 Z M10.337835,6.35352763 L10.7419603,7.59720371 L9.68403845,6.82859054 L8.62611665,7.59720371 L9.0302419,6.35352763 L7.97227134,5.58491445 L9.27996195,5.58491445 L9.68403845,4.34123837 L10.0881149,5.58491445 L11.3958056,5.58491445 L10.337835,6.35352763 Z M10.337835,2.71771673 L10.7419603,3.96139281 L9.68403845,3.19277963 L8.62611665,3.96139281 L9.0302419,2.71771673 L7.97227134,1.94910355 L9.27996195,1.94910355 L9.68403845,0.705427467 L10.0881149,1.94910355 L11.3958056,1.94910355 L10.337835,2.71771673 Z" id="Shape" fill="#0052B4" fill-rule="nonzero"></path>
                        </g>
                    </g>
                </g>
            </g>
        </g>
    </g>
</svg>