<?xml version="1.0" encoding="UTF-8"?>
<svg width="30px" height="26px" viewBox="0 0 30 26" version="1.1" xmlns="http://www.w3.org/2000/svg" xmlns:xlink="http://www.w3.org/1999/xlink">
    <title>Icon/Description</title>
    <g id="Icon/Description" stroke="none" stroke-width="1" fill="none" fill-rule="evenodd">
        <g id="Book---Open" transform="translate(1.000000, 2.000000)" stroke="#000000" stroke-width="1.1">
            <path d="M13.5,4.6 C13.5,2.07 11.475,0 9,0 L0.5625,0 L0.5625,18.4 L9.05625,18.4 C13.5,18.4 13.5,23 13.5,23 C13.5,23 13.5,18.4 18,18.4 L26.4375,18.4 L26.4375,0 L18,0 C15.525,0 13.5,2.07 13.5,4.6" id="Path"></path>
            <path d="M16.03125,22.7125 C16.59375,21.505 17.83125,20.7 19.125,20.7 L27,20.7" id="Path"></path>
            <path d="M10.96875,22.7125 C10.40625,21.505 9.225,20.7 7.875,20.7 L0,20.7" id="Path"></path>
            <path d="M13.5,4.6 L13.5,23" id="Path"></path>
        </g>
    </g>
</svg>