<?xml version="1.0" encoding="UTF-8"?>
<svg width="30px" height="26px" viewBox="0 0 30 26" version="1.1" xmlns="http://www.w3.org/2000/svg" xmlns:xlink="http://www.w3.org/1999/xlink">
    <title>Recycle</title>
    <g id="Icon/Recycle" stroke="none" stroke-width="1" fill="none" fill-rule="evenodd">
        <g id="Technology" transform="translate(3.000000, 0.000000)">
            <ellipse id="Oval" stroke="#000000" stroke-width="1.1" cx="12.2790698" cy="13" rx="5.58139535" ry="13"></ellipse>
            <path d="M15.1255814,17.9173913 C8.8744186,21.4782609 2.51162791,22.2130435 0.893023256,19.5 C-0.725581395,16.7869565 3.1255814,11.7 9.37674419,8.0826087 C15.627907,4.46521739 22.0465116,3.78695652 23.6093023,6.5 C25.172093,9.21304348 21.4325581,14.3 15.1255814,17.9173913 Z" id="Path" stroke="#000000" stroke-width="1.1"></path>
            <path d="M15.1255814,8.0826087 C21.3767442,11.7 25.227907,16.7869565 23.6093023,19.5 C21.9906977,22.2130435 15.6837209,21.4782609 9.43255814,17.9173913 C3.18139535,14.3565217 -0.669767442,9.21304348 0.893023256,6.5 C2.45581395,3.78695652 8.8744186,4.52173913 15.1255814,8.0826087 Z" id="Path" stroke="#000000" stroke-width="1.1"></path>
            <ellipse id="Oval" fill="#000000" fill-rule="nonzero" cx="12.2790698" cy="13" rx="1.11627907" ry="1.13043478"></ellipse>
        </g>
    </g>
</svg>