<?xml version="1.0" encoding="UTF-8"?>
<svg width="22px" height="16px" viewBox="0 0 22 16" version="1.1" xmlns="http://www.w3.org/2000/svg" xmlns:xlink="http://www.w3.org/1999/xlink">
    <!-- Generator: Sketch 55.2 (78181) - https://sketchapp.com -->
    <title>Icon/TruckFAST-upsideD-Copy</title>
    <desc>Created with Sketch.</desc>
    <g id="Page-1" stroke="none" stroke-width="1" fill="none" fill-rule="evenodd">
        <g id="Icon/TruckFAST-upsideD-Copy" transform="translate(10.648221, 8.000000) rotate(-180.000000) translate(-10.648221, -8.000000) translate(-0.351779, -0.000000)" stroke="#000000">
            <g id="Truck" transform="translate(0.222222, 0.666667)">
                <path d="M17.9042554,14.6666659 L18.567376,14.6666659 C19.5841609,14.6666659 20.3799055,13.8704754 20.3356975,12.9485706 C20.3356975,12.9066659 20.3356975,12.8647611 20.3356975,12.8228563 L19.6725769,5.44761825 L14.8096928,5.44761825 L14.3676124,11.3142849 L12.5992909,11.3142849 L12.0245864,5.15428491 C11.8477542,3.43618968 10.344681,2.0952373 8.48794336,2.0952373 L1.02151782e-07,2.0952373 L1.02151782e-07,13.8285706 L3.53664313,14.6666659" id="Path" transform="translate(10.168727, 8.380952) rotate(-180.000000) translate(-10.168727, -8.380952) "></path>
                <path d="M6.8540029,2.0952379 L12.3800076,2.0952379" id="Path" transform="translate(9.617005, 2.095238) rotate(-180.000000) translate(-9.617005, -2.095238) "></path>
                <ellipse id="Oval" transform="translate(14.590409, 2.095238) rotate(-180.000000) translate(-14.590409, -2.095238) " cx="14.590409" cy="2.0952379" rx="2.21040189" ry="2.0952381"></ellipse>
                <ellipse id="Oval" transform="translate(4.643600, 2.095238) rotate(-180.000000) translate(-4.643600, -2.095238) " cx="4.64359953" cy="2.0952379" rx="2.21040189" ry="2.0952381"></ellipse>
                <polyline id="Path" transform="translate(1.880598, 9.219048) rotate(-180.000000) translate(-1.880598, -9.219048) " points="3.53839931 11.3142865 0.22279647 11.3142865 0.22279647 7.1238103"></polyline>
            </g>
        </g>
    </g>
</svg>