<?xml version="1.0" encoding="UTF-8"?>
<svg width="97px" height="20px" viewBox="0 0 97 20" version="1.1" xmlns="http://www.w3.org/2000/svg" xmlns:xlink="http://www.w3.org/1999/xlink">
    <title>Solid Afterpay</title>
    <defs>
        <polygon id="path-1" points="0.184677811 0.0650811196 9.79092078 0.0650811196 9.79092078 14.6367623 0.184677811 14.6367623"></polygon>
        <polygon id="path-3" points="0.0113450292 0.0650811196 71.9562261 0.0650811196 71.9562261 14.6367623 0.0113450292 14.6367623"></polygon>
        <polygon id="path-5" points="0.130648947 0.0247638235 62.6603299 0.0247638235 62.6603299 12.8837612 0.130648947 12.8837612"></polygon>
    </defs>
    <g id="Desktop-V3" stroke="none" stroke-width="1" fill="none" fill-rule="evenodd">
        <g id="Basic-Wireframe:-Desktop" transform="translate(-1134.000000, -552.000000)">
            <g id="Image/Desktop/Afterpay" transform="translate(1134.000000, 552.000000)">
                <g id="AP2-RGB">
                    <g id="Group-3" transform="translate(40.558480, 5.352113)">
                        <mask id="mask-2" fill="white">
                            <use xlink:href="#path-1"></use>
                        </mask>
                        <g id="Clip-2"></g>
                        <path d="M7.35920473,4.79987163 C7.35920473,3.48693885 6.27417577,2.39261187 4.98779929,2.39261187 C3.70161012,2.39261187 2.61620655,3.48693885 2.61620655,4.79987163 C2.61620655,6.09277946 3.70161012,7.20731681 4.98779929,7.20731681 C6.27417577,7.20731681 7.35920473,6.09277946 7.35920473,4.79987163 M8.38448499,1.43790337 C9.28858215,2.35293279 9.79092078,3.54645748 9.79092078,4.79987163 C9.79092078,6.05328579 9.28858215,7.24681048 8.38448499,8.1618399 C7.47982594,9.05740061 6.27417577,9.53484757 4.98779929,9.53484757 C4.14382544,9.53484757 3.3798287,9.23632733 2.71659936,8.63947228 L2.61620655,8.5601141 L2.61620655,13.8882368 L0.184677811,14.6478873 L0.184677811,0.244007845 L2.61620655,0.244007845 L2.61620655,0.960085577 L2.71659936,0.860702443 C3.4405139,0.164464254 4.26444665,0.0650811196 4.98779929,0.0650811196 C6.25394737,0.0650811196 7.45997214,0.542342664 8.38448499,1.43790337" id="Fill-1" fill="#31322F" mask="url(#mask-2)"></path>
                    </g>
                    <path d="M53.4936267,10.1407513 C53.4936267,11.4686159 54.5831719,12.575576 55.874269,12.575576 C57.1655541,12.575576 58.2547233,11.4686159 58.2547233,10.1407513 C58.2547233,8.83313942 57.1655541,7.70611412 55.874269,7.70611412 C54.5831719,7.70611412 53.4936267,8.83313942 53.4936267,10.1407513 M52.4644341,13.5409548 C51.556699,12.6155189 51.0526316,11.4084204 51.0526316,10.1407513 C51.0526316,8.87308225 51.556699,7.66598376 52.4644341,6.74054784 C53.3725452,5.83480205 54.5831719,5.35211268 55.874269,5.35211268 C56.7212753,5.35211268 57.4879993,5.65384042 58.1539475,6.25729589 L58.2547233,6.33774412 L58.2547233,5.53307431 L60.6959064,5.53307431 L60.6959064,14.7486158 L58.2547233,14.7486158 L58.2547233,14.0240192 L58.1539475,14.1249077 C57.4276466,14.8288765 56.6001938,14.9295775 55.874269,14.9295775 C54.6029135,14.9295775 53.3932268,14.4467006 52.4644341,13.5409548" id="Fill-4" fill="#31322F"></path>
                    <g id="Group-10" transform="translate(0.000000, 5.352113)">
                        <mask id="mask-4" fill="white">
                            <use xlink:href="#path-3"></use>
                        </mask>
                        <g id="Clip-6"></g>
                        <path d="M53.6757914,4.79987163 C53.6757914,6.11280442 54.7715322,7.20731681 56.0699708,7.20731681 C57.3685984,7.20731681 58.463961,6.11280442 58.463961,4.79987163 C58.463961,3.50696381 57.3685984,2.39261187 56.0699708,2.39261187 C54.7715322,2.39261187 53.6757914,3.50696381 53.6757914,4.79987163 M52.6407466,8.1618399 C51.7278499,7.24681048 51.2209162,6.05328579 51.2209162,4.79987163 C51.2209162,3.54645748 51.7278499,2.35293279 52.6407466,1.43790337 C53.5540214,0.542342664 54.7715322,0.0650811196 56.0699708,0.0650811196 C56.9217934,0.0650811196 57.6928772,0.363415939 58.3626121,0.960085577 L58.463961,1.03962917 L58.463961,0.244007845 L60.9190253,0.244007845 L60.9190253,9.35592084 L58.463961,9.35592084 L58.463961,8.63947228 L58.3626121,8.73922624 C57.6321813,9.43527902 56.8000234,9.53484757 56.0699708,9.53484757 C54.791386,9.53484757 53.5748207,9.05740061 52.6407466,8.1618399" id="Fill-5" fill="#31322F" mask="url(#mask-4)"></path>
                        <polyline id="Fill-7" fill="#31322F" mask="url(#mask-4)" points="63.3742788 14.6478873 65.5859922 9.37576039 61.8727641 0.244007845 64.5914113 0.244007845 66.9044737 5.91385274 69.2576218 0.244007845 71.9562261 0.244007845 66.0320409 14.6478873 63.3742788 14.6478873"></polyline>
                        <polyline id="Fill-8" fill="#31322F" mask="url(#mask-4)" points="63.3742788 14.6478873 65.5859922 9.37576039 61.8727641 0.244007845 64.5914113 0.244007845 66.9044737 5.91385274 69.2576218 0.244007845 71.9562261 0.244007845 66.0320409 14.6478873 63.3742788 14.6478873"></polyline>
                        <path d="M4.74959649,1.59903013 C2.96105263,1.59903013 1.5052963,3.03489392 1.5052963,4.79987163 C1.5052963,6.56484935 2.96105263,8.00071314 4.74959649,8.00071314 C6.53832943,8.00071314 7.99389669,6.56484935 7.99389669,4.79987163 C7.99389669,3.03489392 6.53832943,1.59903013 4.74959649,1.59903013 M4.74959649,9.4373186 C3.47933138,9.4373186 2.28413255,8.96191121 1.38428265,8.09842753 C0.492185185,7.20397932 0,6.03196292 0,4.79987163 C0,3.56778035 0.492185185,2.39576395 1.38617349,1.49946158 C2.28451072,0.637832056 3.47933138,0.162239258 4.74959649,0.162239258 C6.03442105,0.162239258 7.11635867,0.828996256 7.79724951,1.38802639 L7.99389669,1.54896773 L7.99389669,0.360820111 L9.49919298,0.360820111 L9.49919298,9.23892316 L7.99389669,9.23892316 L7.99389669,8.05040471 L7.79724951,8.21153147 C7.11635867,8.77074701 6.03442105,9.4373186 4.74959649,9.4373186" id="Fill-9" fill="#31322F" mask="url(#mask-4)"></path>
                    </g>
                    <path d="M12.1580662,14.3661972 L12.1580662,6.88685394 L10.7777778,6.88685394 L10.7777778,5.48998069 L12.1580662,5.48998069 L12.1580662,2.86678805 C12.1580662,1.25931785 13.4604213,0 15.1231231,0 L17.0175439,0 L16.6352549,1.39687325 L15.1641705,1.39687325 C14.3651657,1.39687325 13.664334,2.1022618 13.664334,2.90627498 L13.664334,5.48998069 L16.5262997,5.48998069 L16.5262997,6.88685394 L13.664334,6.88685394 L13.664334,14.3661972 L12.1580662,14.3661972" id="Fill-11" fill="#31322F"></path>
                    <path d="M22.2141447,14.3661972 C20.5788709,14.3661972 19.2490878,13.062387 19.2490878,11.4599222 L19.2490878,6.88685394 L17.8684211,6.88685394 L17.8684211,5.48998069 L19.2490878,5.48998069 L19.2490878,0 L20.7549773,0 L20.7549773,5.48998069 L23.6167538,5.48998069 L23.6167538,6.88685394 L20.7549773,6.88685394 L20.7549773,11.4198791 C20.7549773,12.2307515 21.4699958,12.9693239 22.2551921,12.9693239 L23.7258981,12.9693239 L24.1081871,14.3661972 L22.2141447,14.3661972" id="Fill-12" fill="#31322F"></path>
                    <path d="M28.6390557,6.73892803 C27.4901838,6.73892803 26.4236141,7.57984709 25.9844823,8.83137263 L25.970112,8.85884745 L25.885197,9.03184409 L31.3940341,9.03184409 L31.2874705,8.81810892 C30.8759593,7.58041553 29.8088298,6.73892803 28.6390557,6.73892803 M28.6364429,14.6478873 C27.473574,14.6471294 26.4036451,14.1558038 25.6235469,13.2646721 C24.9076481,12.4777553 24.4890452,11.4905565 24.411222,10.408238 C24.3918129,10.2657479 24.3918129,10.1315949 24.3918129,9.98967326 C24.3918129,9.63439538 24.431191,9.27381202 24.5092008,8.91796569 C24.6812704,8.1020582 25.0662806,7.34110035 25.6228004,6.71562181 C26.3986062,5.84931223 27.4980221,5.35211268 28.6390557,5.35211268 C29.7901671,5.35211268 30.8690541,5.83699593 31.6767731,6.71713766 C32.2562479,7.36800673 32.6412581,8.12839613 32.7886929,8.91417606 C32.9049612,9.60881537 32.9081338,10.0402648 32.8956299,10.2562738 L25.8176383,10.2562738 L25.8176383,10.4169541 C26.0251668,12.0235681 27.2192023,13.2396606 28.5970648,13.261072 C29.4441618,13.2191965 30.2798747,12.8673293 30.8586031,12.3153696 L32.098362,13.0668534 C31.7616881,13.4287631 31.4018724,13.7262491 31.0008124,13.974091 C30.3470602,14.3721917 29.5292635,14.6054435 28.6364429,14.6478873" id="Fill-13" fill="#31322F"></path>
                    <g id="Group-17" transform="translate(34.318713, 1.971831)">
                        <mask id="mask-6" fill="white">
                            <use xlink:href="#path-5"></use>
                        </mask>
                        <g id="Clip-15"></g>
                        <path d="M0.130648947,12.7374648 L0.130648947,3.74591549 L1.63405583,3.74591549 L1.63405583,4.88225352 L1.84211239,4.65408451 C2.37509212,4.06873239 3.94193549,3.59230047 4.98372868,3.54779343 L4.61726971,5.04150235 C2.96376758,5.0884507 1.63405583,6.37051643 1.63405583,7.93934272 L1.63405583,12.7374648 L0.130648947,12.7374648" id="Fill-14" fill="#31322F" mask="url(#mask-6)"></path>
                        <path d="M50.4667428,6.17615023 C51.3603288,5.66159624 52.2006734,5.17784038 53.0989793,4.66046948 C52.8084175,4.15248826 52.8790284,4.27474178 52.6141433,3.79568075 C52.3330215,3.28807512 52.4391266,3.0884507 53.0191173,3.08413146 C54.7083024,3.07248826 56.3976764,3.07117371 58.0862951,3.07981221 C58.588123,3.08225352 58.7091432,3.29596244 58.4576629,3.73615023 C57.622227,5.19774648 56.7775401,6.65389671 55.9253011,8.10535211 C55.6530529,8.5686385 55.4149773,8.56788732 55.1304571,8.1143662 C54.8381962,7.6486385 54.9161702,7.76375587 54.6033301,7.23549296 C53.7223938,7.74422535 52.8422126,8.25295775 51.9792121,8.75079812 C52.0311318,8.88544601 52.0972115,8.97183099 52.1513968,9.06535211 C52.801432,10.1907981 53.0914273,10.7280751 53.7633631,11.8403756 C54.5589624,13.1586854 56.2271908,13.2381221 57.1747733,12.0195305 C57.2801232,11.8841315 57.3765995,11.7404695 57.462503,11.5919249 C59.0565335,8.8458216 60.6511303,6.1000939 62.2360984,3.34835681 C62.3963888,3.07004695 62.5411977,2.7656338 62.6108645,2.45502347 C62.8885879,1.21633803 61.9647941,0.0450704225 60.666423,0.0381220657 C57.2504817,0.0200938967 53.8345404,0.0176525822 50.4187879,0.0475117371 C48.8630837,0.0608450704 47.9277731,1.61051643 48.6110369,2.97220657 C48.8338198,3.41558685 49.1009705,3.83680751 49.3515068,4.26647887 C49.8223717,5.07492958 49.946979,5.28788732 50.4667428,6.17615023" id="Fill-16" fill="#31322F" mask="url(#mask-6)"></path>
                    </g>
                    <path d="M77.0774312,16.3294425 C77.0789448,15.316702 77.0819721,13.3337763 77.0819721,13.3337763 C77.0819721,13.3337763 76.6609959,13.3291101 76.0920631,13.3291101 C75.5131026,13.3291101 75.3933372,13.1275326 75.6792226,12.6332944 C76.5122825,11.1950013 77.3548025,9.7617477 78.2054582,8.33353352 C78.4584223,7.90928747 78.6822492,7.87214494 78.9582961,8.3436124 C79.7985457,9.77929241 80.6412549,11.2132926 81.4703415,12.6549453 C81.7350362,13.115214 81.6156492,13.3166049 81.0815298,13.333403 C80.5300036,13.333403 80.0585103,13.3330297 80.0585103,13.3330297 L80.0585103,16.3376549 C80.0585103,16.3376549 82.3060502,16.3380282 83.6198743,16.3380282 C85.1563901,16.3158173 86.0577522,14.9400506 85.4776565,13.5333007 C85.4133275,13.3768915 85.3370788,13.2238419 85.2521268,13.0775115 C83.6739863,10.3657337 82.0967919,7.65358263 80.5093805,4.94703092 C80.3485582,4.67284814 80.1582202,4.39941194 79.9243655,4.18626236 C78.9923526,3.33758361 77.5186521,3.5410276 76.8647673,4.63869194 C75.1435896,7.52722338 73.4358452,10.4235939 71.7559137,13.3352695 C70.9909668,14.6619483 71.8633809,16.2221211 73.3819224,16.3165639 C73.8763093,16.3475471 75.9872448,16.3294425 77.0774312,16.3294425" id="Fill-18" fill="#000"></path>
                </g>
            </g>
        </g>
    </g>
</svg>