<?xml version="1.0" encoding="UTF-8"?>
<svg width="46px" height="19px" viewBox="0 0 46 19" version="1.1" xmlns="http://www.w3.org/2000/svg" xmlns:xlink="http://www.w3.org/1999/xlink">
    <!-- Generator: Sketch 55.2 (78181) - https://sketchapp.com -->
    <title>Logo/Payment/Apple Pay</title>
    <desc>Created with Sketch.</desc>
    <g id="Symbols" stroke="none" stroke-width="1" fill="none" fill-rule="evenodd" fill-opacity="0.9">
        <g id="Footer/Tablet" transform="translate(-658.000000, -214.000000)" fill="#000000">
            <g id="Logo/Payment/Apple-Pay-1" transform="translate(658.000000, 214.000000)">
                <path d="M8.2990081,2.49787861 C8.75805426,1.82520555 9.06862187,0.923475724 8.98695867,0 C8.31509328,0.0391426131 7.49598666,0.519002055 7.02085533,1.19312484 C6.59521685,1.76866622 6.2178339,2.70953866 6.31558227,3.59242205 C7.07034818,3.66925755 7.82387677,3.15170522 8.2990081,2.49787861" id="Fill-6"></path>
                <path d="M9.36583394,3.60472433 C8.09089556,3.53454498 7.00755809,4.26944192 6.39818076,4.26944192 C5.79024404,4.26944192 4.85817044,3.63915193 3.84974461,3.65636574 C2.53735041,3.67490368 1.32003636,4.35683507 0.653034699,5.4413046 C-0.716983833,7.61024367 0.292882614,10.8292247 1.62400472,12.5969497 C2.27083787,13.4708812 3.05020698,14.43353 4.07736072,14.3991024 C5.04833075,14.3633507 5.42865135,13.821778 6.60706897,13.821778 C7.7869272,13.821778 8.12979199,14.3991024 9.15694573,14.3818886 C10.2215553,14.3633507 10.888557,13.506633 11.5339495,12.6313773 C12.2773034,11.634301 12.5798311,10.6729763 12.5999997,10.6200108 C12.5798311,10.602797 10.5456922,9.88511383 10.5269643,7.73338856 C10.5067957,5.93123589 12.1245989,5.0745182 12.2009512,5.02155266 C11.2876055,3.77951063 9.8599626,3.63915193 9.36583394,3.60472433" id="Fill-8"></path>
                <path d="M18.3820287,8.02798889 L20.8875317,8.02798889 C22.7872307,8.02798889 23.8683141,7.04589831 23.8683141,5.34324474 C23.8683141,3.64059117 22.7872307,2.66667332 20.8960442,2.66667332 L18.3820287,2.66667332 L18.3820287,8.02798889 Z M21.4720545,0.899999976 C24.2003003,0.899999976 26.0999993,2.70481276 26.0999993,5.33370988 C26.0999993,7.97214185 24.1605755,9.78785162 21.402536,9.78785162 L18.3820287,9.78785162 L18.3820287,14.4 L16.1999996,14.4 L16.1999996,0.899999976 L21.4720545,0.899999976 Z" id="Fill-10"></path>
                <path d="M32.9374808,10.6747142 L32.9374808,9.9250813 L30.4338206,10.0731237 C29.0253287,10.1565658 28.2918001,10.6370307 28.2918001,11.4795266 C28.2918001,12.292414 29.0560754,12.8186375 30.2522686,12.8186375 C31.7808191,12.8186375 32.9374808,11.922308 32.9374808,10.6747142 M26.0999993,11.5347061 C26.0999993,9.8241433 27.517276,8.84437171 30.1307459,8.6963293 L32.9374808,8.53886601 L32.9374808,7.79999979 C32.9374808,6.71794436 32.1629567,6.12712056 30.7852115,6.12712056 C29.6490475,6.12712056 28.824743,6.66276491 28.6534399,7.48507321 L26.6226933,7.48507321 C26.6827226,5.75701453 28.4528543,4.49999988 30.8452408,4.49999988 C33.4206433,4.49999988 35.0999993,5.73817277 35.0999993,7.66137826 L35.0999993,14.2977158 L33.0180079,14.2977158 L33.0180079,12.6988577 L32.9682275,12.6988577 C32.3737912,13.7432297 31.0663242,14.3999996 29.6490475,14.3999996 C27.5568075,14.3999996 26.0999993,13.2533439 26.0999993,11.5347061" id="Fill-12"></path>
                <path d="M37.0343274,18.8439999 L37.0343274,17.2213775 C37.1733967,17.2391335 37.5123783,17.2582553 37.6905609,17.2582553 C38.6756355,17.2582553 39.2333616,16.8648923 39.5708945,15.8514362 L39.7708067,15.250465 L35.999999,5.39999986 L38.3279621,5.39999986 L40.9543448,13.3929175 L41.0050472,13.3929175 L43.6314299,5.39999986 L45.8999988,5.39999986 L41.9886732,15.7476321 C41.0934142,18.1214686 40.0692263,18.8999999 37.9006136,18.8999999 C37.7311228,18.8999999 37.1835372,18.8808777 37.0343274,18.8439999" id="Fill-14"></path>
            </g>
        </g>
    </g>
</svg>