<?xml version="1.0" encoding="UTF-8"?>
<svg width="35px" height="27px" viewBox="0 0 35 27" version="1.1" xmlns="http://www.w3.org/2000/svg" xmlns:xlink="http://www.w3.org/1999/xlink">
    <!-- Generator: Sketch 55.2 (78181) - https://sketchapp.com -->
    <title>Logo/Payment/Mastercard</title>
    <desc>Created with Sketch.</desc>
    <g id="Symbols" stroke="none" stroke-width="1" fill="none" fill-rule="evenodd">
        <g id="Footer/Tablet" transform="translate(-936.000000, -210.000000)">
            <g id="Logo/Payment/Mastercard/Greyscale---Vertical" transform="translate(936.000000, 210.000000)">
                <path d="M6.85303307,25.4768993 C6.88091214,25.0171493 7.28825632,24.6661493 7.76297491,24.6938993 C8.2376935,24.7208993 8.59934698,25.1153993 8.57146791,25.5751493 C8.54513768,26.0138993 8.1710935,26.3573993 7.7165098,26.3596493 C7.24488888,26.3686493 6.85458191,26.0056493 6.84528889,25.5481493 C6.84528889,25.5241493 6.84528889,25.5008993 6.84683773,25.4768993 L6.85303307,25.4768993 Z M9.1584772,25.4768993 L9.1584772,24.0983994 L8.53894233,24.0983994 L8.53894233,24.4321494 C8.3252028,24.1666494 7.99297723,24.0166494 7.64526329,24.0286494 C6.82283075,24.0286494 6.15605635,24.6743993 6.15605635,25.4708993 C6.15605635,26.2673993 6.82283075,26.9138993 7.64526329,26.9138993 C7.99297723,26.9258993 8.3252028,26.7751493 8.53894233,26.5096493 L8.53894233,26.8441493 L9.1584772,26.8441493 L9.1584772,25.4768993 Z M30.077072,25.4768993 C30.1049511,25.0171493 30.5122952,24.6661493 30.9870138,24.6938993 C31.4617324,24.7208993 31.8233859,25.1153993 31.7955068,25.5751493 C31.7691766,26.0138993 31.394358,26.3573993 30.9405487,26.3596493 C30.4689278,26.3656493 30.0809441,25.9996493 30.0747487,25.5421493 C30.0747487,25.5203993 30.0755232,25.4986493 30.077072,25.4768993 L30.077072,25.4768993 Z M33.353637,26.6483993 L33.353637,26.7173993 L33.4186882,26.7173993 C33.4303045,26.7203993 33.4426952,26.7203993 33.4550859,26.7173993 C33.458958,26.7091493 33.458958,26.6993993 33.4550859,26.6911493 C33.458958,26.6828993 33.458958,26.6738993 33.4550859,26.6648993 C33.4426952,26.6618993 33.4303045,26.6618993 33.4186882,26.6648993 L33.353637,26.6483993 Z M33.4186882,26.5988993 C33.4465673,26.5981493 33.4736719,26.6056493 33.49613,26.6221493 C33.5147161,26.6371493 33.5247835,26.6596493 33.5232347,26.6828993 C33.5240091,26.7016493 33.5162649,26.7211493 33.5023254,26.7346493 C33.4852882,26.7496493 33.46283,26.7586493 33.4395975,26.7601493 L33.5263324,26.8553993 L33.4574091,26.8553993 L33.3768696,26.7601493 L33.3505393,26.7601493 L33.3505393,26.8553993 L33.2940068,26.8553993 L33.2940068,26.6018993 L33.4186882,26.5988993 Z M33.4008766,26.9423993 C33.4310789,26.9423993 33.4597324,26.9363993 33.4876114,26.9251493 C33.5131673,26.9138993 33.5363998,26.8981493 33.5557603,26.8786493 C33.6332021,26.7968993 33.6332021,26.6716493 33.5557603,26.5898993 C33.5363998,26.5703993 33.5131673,26.5553993 33.4876114,26.5441493 C33.4597324,26.5328993 33.4310789,26.5268993 33.4008766,26.5268993 C33.3714487,26.5268993 33.3420207,26.5328993 33.3149161,26.5441493 C33.2878114,26.5546493 33.2638045,26.5703993 33.2436696,26.5898993 C33.1662277,26.6716493 33.1662277,26.7968993 33.2436696,26.8786493 C33.2638045,26.8988993 33.2878114,26.9146493 33.3149161,26.9251493 C33.344344,26.9371493 33.3768696,26.9438993 33.4101696,26.9423993 L33.4008766,26.9423993 Z M33.4008766,26.4548993 C33.4395975,26.4541493 33.4783184,26.4608993 33.5139417,26.4751493 C33.5487905,26.4886493 33.5797672,26.5081493 33.6068719,26.5328993 C33.6332021,26.5576493 33.6541114,26.5868993 33.6688254,26.6191493 C33.6998021,26.6873993 33.6998021,26.7646493 33.6688254,26.8328993 C33.6541114,26.8651493 33.6332021,26.8943993 33.6068719,26.9191493 C33.5797672,26.9438993 33.5487905,26.9633993 33.5139417,26.9768993 C33.4783184,26.9926493 33.4403719,27.0001493 33.4008766,27.0001493 C33.2854882,26.9993993 33.1817161,26.9341493 33.1329277,26.8328993 C33.1027254,26.7646493 33.1027254,26.6873993 33.1329277,26.6191493 C33.1484161,26.5868993 33.1693254,26.5576493 33.1956556,26.5328993 C33.2219859,26.5081493 33.253737,26.4886493 33.2878114,26.4751493 C33.3265324,26.4601493 33.368351,26.4533993 33.4101696,26.4548993 L33.4008766,26.4548993 Z M32.3678022,25.4768993 L32.3678022,22.9906494 L31.7714999,22.9906494 L31.7714999,24.4321494 C31.5585347,24.1666494 31.2255348,24.0166494 30.8778208,24.0286494 C30.0553883,24.0286494 29.3893883,24.6743993 29.3893883,25.4708993 C29.3893883,26.2673993 30.0553883,26.9138993 30.8778208,26.9138993 C31.2255348,26.9258993 31.5585347,26.7751493 31.7714999,26.5096493 L31.7714999,26.8441493 L32.3678022,26.8441493 L32.3678022,25.4768993 Z M16.8461305,24.5656493 C17.235663,24.5573993 17.5585956,24.8566493 17.5671142,25.2338993 L17.5671142,25.2346493 L16.0779072,25.2346493 C16.1003654,24.8498993 16.4364631,24.5521493 16.8345142,24.5656493 L16.8461305,24.5656493 Z M16.8461305,24.0286494 C16.0236979,24.0398994 15.3662166,24.6946493 15.3778328,25.4911493 C15.3894491,26.2876493 16.0655166,26.9243993 16.8879491,26.9138993 C17.3162026,26.9348993 17.7382607,26.8013993 18.0704863,26.5388993 L17.7723351,26.0941493 C17.5369119,26.2763993 17.2457305,26.3783993 16.9444816,26.3828993 C16.5185514,26.4181493 16.1414096,26.1188993 16.0926212,25.7078993 L18.2075584,25.7078993 L18.2075584,25.4768993 C18.2075584,24.6113993 17.6530746,24.0346494 16.8554235,24.0346494 L16.8461305,24.0286494 Z M24.3223675,25.4708993 C24.3502466,25.0111493 24.7575907,24.6608993 25.2323093,24.6878993 C25.7070279,24.7148993 26.0686814,25.1093993 26.0408023,25.5691493 C26.0144721,26.0078993 25.6404279,26.3513993 25.1858442,26.3536493 C24.7142233,26.3596493 24.3262396,25.9936493 24.3208187,25.5368993 C24.3200442,25.5143993 24.3208187,25.4926493 24.3223675,25.4708993 L24.3223675,25.4708993 Z M26.6278116,25.4708993 L26.6278116,24.0983994 L26.0082768,24.0983994 L26.0082768,24.4321494 C25.7945372,24.1666494 25.4623117,24.0166494 25.1145977,24.0286494 C24.2921652,24.0286494 23.6253908,24.6743993 23.6253908,25.4708993 C23.6253908,26.2673993 24.2921652,26.9138993 25.1145977,26.9138993 C25.4623117,26.9258993 25.7945372,26.7751493 26.0082768,26.5096493 L26.0082768,26.8441493 L26.6278116,26.8441493 L26.6278116,25.4708993 Z M20.8250932,25.4708993 C20.7964397,26.2403993 21.4159745,26.8861493 22.210528,26.9146493 C22.2554443,26.9161493 22.2995862,26.9153993 22.3445024,26.9138993 C22.7162234,26.9318993 23.0825233,26.8141493 23.3690582,26.5846493 L23.0716815,26.1001493 C22.8571675,26.2583993 22.5961885,26.3453993 22.3266908,26.3483993 C21.8233187,26.3086493 21.4485001,25.8818993 21.4887699,25.3936493 C21.5251676,24.9616493 21.8798513,24.6173993 22.3266908,24.5828993 C22.5961885,24.5858993 22.8571675,24.6728993 23.0716815,24.8303993 L23.3690582,24.3458994 C23.0825233,24.1163994 22.7162234,23.9986494 22.3445024,24.0173994 C21.5514978,23.9738994 20.8723327,24.5611493 20.826642,25.3291493 C20.8243188,25.3726493 20.8243188,25.4161493 20.8250932,25.4596493 L20.8250932,25.4708993 Z M28.8085744,24.0286494 C28.5003558,24.0203994 28.212272,24.1748994 28.0573883,24.4321494 L28.0573883,24.0983994 L27.4440488,24.0983994 L27.4440488,26.8553993 L28.0635837,26.8553993 L28.0635837,25.3096493 C28.0635837,24.8536493 28.2657069,24.6001493 28.6591116,24.6001493 C28.7915371,24.5986493 28.9231883,24.6218993 29.0463209,24.6691493 L29.2368278,24.0923994 C29.0958836,24.0428994 28.9464209,24.0181494 28.7961837,24.0173994 L28.8085744,24.0286494 Z M12.2143329,24.3173994 C11.8635213,24.1156494 11.4608236,24.0151494 11.0527051,24.0286494 C10.3324958,24.0286494 9.86164927,24.3631494 9.86164927,24.9113993 C9.86164927,25.3613993 10.20704,25.6381493 10.8443865,25.7251493 L11.1425376,25.7656493 C11.481733,25.8113993 11.642812,25.8983993 11.642812,26.0536493 C11.642812,26.2673993 11.4166818,26.3881493 10.9930748,26.3881493 C10.6531051,26.3978993 10.3193307,26.2966493 10.0459609,26.1001493 L9.74858416,26.5673993 C10.1094632,26.8111493 10.5415888,26.9363993 10.9814585,26.9251493 C11.8038911,26.9251493 12.2801585,26.5501493 12.2801585,26.0251493 C12.2801585,25.5001493 11.9045655,25.2863993 11.2850306,25.2001493 L10.9868795,25.1596493 C10.7197051,25.1251493 10.5044167,25.0726493 10.5044167,24.8881493 C10.5044167,24.7036493 10.7073144,24.5656493 11.0472841,24.5656493 C11.3609237,24.5686493 11.6683678,24.6503993 11.9401888,24.8018993 L12.2143329,24.3173994 Z M20.203235,24.0286494 C19.8950164,24.0203994 19.6077072,24.1748994 19.4528234,24.4321494 L19.4528234,24.0983994 L18.8387095,24.0983994 L18.8387095,26.8553993 L19.4582444,26.8553993 L19.4582444,25.3096493 C19.4582444,24.8536493 19.661142,24.6001493 20.0537723,24.6001493 C20.1869723,24.5986493 20.317849,24.6218993 20.4409816,24.6691493 L20.6314885,24.0923994 C20.4905443,24.0428994 20.3410816,24.0181494 20.1908443,24.0173994 L20.203235,24.0286494 Z M14.919377,24.0983994 L13.9002422,24.0983994 L13.9002422,23.2613994 L13.274512,23.2613994 L13.274512,24.0983994 L12.7091864,24.0983994 L12.7091864,24.6458993 L13.2869027,24.6458993 L13.2869027,25.9148993 C13.2869027,26.5553993 13.5432352,26.936405 14.2758352,26.936405 C14.549205,26.9371493 14.8179282,26.8636493 15.0502538,26.7233993 L14.8713631,26.2096493 C14.7056375,26.3056493 14.5166794,26.3588993 14.3230747,26.3656493 C14.025698,26.3656493 13.9126329,26.1803993 13.9126329,25.9036493 L13.9126329,24.6458993 L14.924798,24.6458993 L14.919377,24.0983994 Z M5.66430055,26.8553993 L5.66430055,25.1251493 C5.70534473,24.5588993 5.26470056,24.0691494 4.68001453,24.0293994 C4.63509825,24.0263994 4.59018197,24.0263994 4.54449127,24.0286494 C4.14334245,24.0031494 3.76000525,24.1913994 3.54394246,24.5191494 C3.34646573,24.2011494 2.98558667,24.0128994 2.60302388,24.0286494 C2.26924947,24.0121494 1.95173786,24.1681494 1.76897507,24.4381494 L1.76897507,24.0983994 L1.1494402,24.0983994 L1.1494402,26.8553993 L1.774396,26.8553993 L1.774396,25.3381493 C1.72483321,24.9848993 1.98039134,24.6593993 2.3451425,24.6106493 C2.3869611,24.6053993 2.42955412,24.6031493 2.47137273,24.6053993 C2.88258899,24.6053993 3.09090759,24.8656493 3.09090759,25.3328993 L3.09090759,26.8673993 L3.71663781,26.8673993 L3.71663781,25.3381493 C3.66862386,24.9826493 3.92727966,24.6571493 4.29357965,24.6106493 C4.33384942,24.6053993 4.37334477,24.6038993 4.41361453,24.6053993 C4.83644708,24.6053993 5.03934475,24.8656493 5.03934475,25.3328993 L5.03934475,26.8673993 L5.66430055,26.8553993 Z" id="Fill-1" fill-opacity="0.9" fill="#FFFFFF"></path>
                <path d="M17.0999995,2.30930885 C12.5103854,-1.37684515 5.86601645,-0.562552981 2.25950945,4.12664673 C-1.34699756,8.81662641 -0.550894532,15.6062943 4.03871957,19.2916683 C7.87115802,22.3694431 13.2667978,22.3694431 17.0999995,19.2916683 C14.5491114,17.2457983 13.0607117,14.1157653 13.0630015,10.8016586 C13.0591851,7.48755184 14.5483481,4.35517891 17.0999995,2.30930885 Z" id="Fill-6" fill="#000000"></path>
                <path d="M23.6311858,21.5999994 C21.2628007,21.5999994 18.9623455,20.7865775 17.0999995,19.2907548 C21.6886979,15.6057899 22.4855377,8.8168757 18.8791505,4.12741667 C18.3593728,3.45203474 17.761743,2.84138341 17.0999995,2.31028054 C21.6879346,-1.37624413 28.3328461,-0.56360214 31.9399965,4.125077 C33.4039225,6.02800068 34.1999991,8.37857934 34.1999991,10.7993478 C34.1999991,16.7654815 29.4685718,21.5999994 23.6311858,21.5999994 Z" id="Fill-7" fill="#656565"></path>
                <path d="M34.1999991,17.5850995 L34.1999991,17.0999995 L34.0934811,17.0999995 L33.9684382,17.4464995 L33.8441672,17.0999995 L33.7492272,17.0999995 L33.7492272,17.5850995 L33.8264142,17.5850995 L33.8264142,17.2214995 L33.9421946,17.5364995 L34.0216972,17.5364995 L34.1374777,17.2214995 L34.1374777,17.5886995 L34.1999991,17.5850995 Z M33.5145789,17.5850995 L33.5145789,17.1836995 L33.6535154,17.1836995 L33.6535154,17.0999995 L33.2999991,17.0999995 L33.2999991,17.1836995 L33.4520574,17.1836995 L33.4520574,17.5850995 L33.5145789,17.5850995 Z" id="Fill-8" fill="#F79E1B"></path>
            </g>
        </g>
    </g>
</svg>