<?xml version="1.0" encoding="UTF-8"?>
<svg width="63px" height="17px" viewBox="0 0 63 17" version="1.1" xmlns="http://www.w3.org/2000/svg" xmlns:xlink="http://www.w3.org/1999/xlink">
    <!-- Generator: Sketch 55.2 (78181) - https://sketchapp.com -->
    <title>Logo/Payment/Paypal</title>
    <desc>Created with Sketch.</desc>
    <g id="Symbols" stroke="none" stroke-width="1" fill="none" fill-rule="evenodd">
        <g id="Footer/Tablet" transform="translate(-832.000000, -215.000000)">
            <g id="Logo/Payment/Paypal/Greyscale" transform="translate(832.000000, 215.000000)">
                <g id="Group-7">
                    <g id="Group-3">
                        <polygon id="Clip-2" points="0 0.0507196248 34.3386383 0.0507196248 34.3386383 16.1999996 0 16.1999996"></polygon>
                        <path d="M25.8196349,4.42131297 L23.8253538,4.42131297 C23.4120536,4.42131297 23.2440542,4.71866623 23.3755588,5.09686809 L25.8607494,12.2527258 L23.4117457,15.6560884 C23.2074054,15.9401183 23.3650877,16.2000753 23.6535047,16.2000753 L25.9035577,16.2000753 C26.2395565,16.2000753 26.4032444,16.1157444 26.5723217,15.8772865 L34.2156032,5.09686809 C34.4512028,4.7646924 34.3400244,4.41722512 33.9541338,4.41692231 L31.8268082,4.4148016 C31.4617059,4.41434848 31.3151106,4.55636343 31.1053808,4.85523071 L27.9172411,9.40288854 L26.4988701,4.84735782 C26.4115596,4.56650736 26.2030617,4.42131297 25.8196349,4.42131297 L25.8196349,4.42131297 Z M15.8868799,11.0855689 C14.5761455,11.0855689 13.6626967,10.057853 13.8533322,8.79758388 C14.0441217,7.53746616 15.2684695,6.50975029 16.5792039,6.50975029 C17.8897843,6.50975029 18.8033871,7.53746616 18.6125977,8.79758388 C18.4219622,10.057853 17.1974603,11.0855689 15.8868799,11.0855689 L15.8868799,11.0855689 Z M17.5386947,12.2386455 C17.7414952,12.0577202 17.9487612,11.9627913 17.9185798,12.1867146 L17.8465141,12.7231314 C17.8089413,13.0026193 17.9221215,13.1520529 18.1875945,13.1520529 L20.1613954,13.1520529 C20.4933906,13.1520529 20.6556926,13.0197277 20.7376135,12.5143483 L21.953954,5.00754099 C22.0150867,4.63039894 21.9222328,4.44538586 21.63089,4.44538586 L19.4606021,4.44538586 C19.2648851,4.44538586 19.1700293,4.5534868 19.1187518,4.84735782 L19.0383707,5.30943631 C18.9963324,5.55061948 18.8842301,5.59225499 18.7798272,5.3497092 C18.4113371,4.49216904 17.4721725,4.1077597 16.1549707,4.13440643 C13.1100386,4.19602699 11.0572426,6.46856899 10.8378116,9.38169227 C10.6679643,11.6351576 12.3105399,13.4047426 14.4748223,13.4047426 C16.0451782,13.4045912 16.7476653,12.9443296 17.5386947,12.2386455 L17.5386947,12.2386455 Z M4.26335145,6.24615965 L6.07331056,6.24646245 C7.2046505,6.20437273 7.95718327,5.43388864 8.03263673,4.04371672 C8.07944867,3.18511674 7.48983378,2.57103077 6.55097716,2.57524821 L4.84711485,2.58268872 L4.26335145,6.24615965 Z M7.88265373,0.0506439239 C9.89587522,0.0506439239 11.7528003,1.12378034 11.4987223,3.79995971 C11.1973704,6.97243439 9.45839914,8.73929416 6.72328822,8.74641005 L4.33741903,8.74641005 C3.99341285,8.74641005 3.82818517,9.02135584 3.73779501,9.58729601 L3.27737492,12.474681 C3.20792694,12.9105669 2.98079662,13.1258604 2.64387383,13.1258604 L0.421846434,13.1258604 C0.0675231471,13.1258604 -0.0561281348,12.9031483 0.0228670179,12.4053389 L1.85961981,0.831574744 C1.95000997,0.262303731 2.17144278,0.0506439239 2.56395476,0.0506439239 L7.88265373,0.0506439239 Z" id="Fill-1" fill="#000000"></path>
                    </g>
                    <g id="Group-6" transform="translate(34.199999, 0.000000)">
                        <polygon id="Clip-5" points="0.106531231 0.0502852866 28.4720618 0.0502852866 28.4720618 13.2899359 0.106531231 13.2899359"></polygon>
                        <path d="M25.9997576,13.0527695 L23.6392108,13.0527695 C23.4517518,13.0527695 23.3215676,12.9145225 23.3499656,12.7455039 L25.4257344,0.383579168 C25.4541324,0.214560563 25.6307426,0.0763135513 25.8183611,0.0763135513 L28.1787484,0.0763135513 C28.3663669,0.0763135513 28.4963916,0.214560563 28.4683126,0.383579168 L26.3923843,12.7455039 C26.3638268,12.9145225 26.187376,13.0527695 25.9997576,13.0527695 L25.9997576,13.0527695 Z M16.5661854,10.9906224 C15.2083445,10.9906224 14.2619561,9.97170743 14.4593065,8.72223063 C14.6569759,7.47290395 15.9254747,6.45398894 17.2834751,6.45398894 C18.641316,6.45398894 19.587864,7.47290395 19.3901946,8.72223063 C19.1926846,9.97170743 17.9241859,10.9906224 16.5661854,10.9906224 L16.5661854,10.9906224 Z M18.2775659,12.1338246 C18.4876795,11.9544488 18.7025792,11.8603327 18.6711499,12.0823385 L18.5964854,12.6141617 C18.5577173,12.8912562 18.6748193,13.0394101 18.9498655,13.0394101 L20.9948431,13.0394101 C21.3388103,13.0394101 21.5071245,12.9082181 21.59184,12.4071665 L22.8522023,4.96464383 C22.9153799,4.59073144 22.8191776,4.40730273 22.5173288,4.40730273 L20.2689383,4.40730273 C20.066004,4.40730273 19.9677277,4.51447794 19.9147605,4.80583239 L19.8313214,5.26395386 C19.7877671,5.50307166 19.6716223,5.54435063 19.5634545,5.30388188 C19.1816764,4.45368528 18.2086449,4.07256783 16.8439438,4.09898637 C13.6892092,4.16007924 11.5625473,6.4133104 11.335044,9.30133701 C11.1592314,11.5356549 12.8610395,13.2899359 15.103208,13.2899359 C16.7301921,13.2897858 17.4581709,12.8334656 18.2775659,12.1338246 L18.2775659,12.1338246 Z M4.52350393,6.19265556 L6.3987315,6.19295577 C7.5708684,6.15122649 8.35053806,5.38749055 8.42887196,4.00907328 C8.47721244,3.15782593 7.8663356,2.5489987 6.89362311,2.55318003 L5.12847781,2.56070692 L4.52350393,6.19265556 Z M8.27348046,0.0501952234 C10.3593002,0.0501952234 12.2830278,1.11414182 12.0197876,3.76740369 C11.7075687,6.91271084 9.90588889,8.66444008 7.07214784,8.67164514 L4.60024244,8.67164514 C4.24383114,8.67164514 4.07264523,8.94408632 3.97915507,9.50518005 L3.50197235,12.367989 C3.43002002,12.7999921 3.19469922,13.0134419 2.84562674,13.0134419 L0.543471392,13.0134419 C0.176370945,13.0134419 0.0484202459,12.7927871 0.130264022,12.2990906 L2.03309194,0.824438532 C2.12674164,0.260042479 2.35615948,0.0501952234 2.76282573,0.0501952234 L8.27348046,0.0501952234 Z" id="Fill-4" fill-opacity="0.77" fill="#000000"></path>
                    </g>
                </g>
            </g>
        </g>
    </g>
</svg>