<?xml version="1.0" encoding="UTF-8"?>
<svg width="46px" height="15px" viewBox="0 0 46 15" version="1.1" xmlns="http://www.w3.org/2000/svg" xmlns:xlink="http://www.w3.org/1999/xlink">
    <!-- Generator: Sketch 55.2 (78181) - https://sketchapp.com -->
    <title>Logo/Payment/Visa</title>
    <desc>Created with Sketch.</desc>
    <g id="Symbols" stroke="none" stroke-width="1" fill="none" fill-rule="evenodd">
        <g id="Footer/Tablet" transform="translate(-745.000000, -217.000000)">
            <g id="Logo/Payment/Visa/Greyscale" transform="translate(745.000000, 217.000000)">
                <polygon id="Fill-1" fill-opacity="0.9" fill="#000000" points="18.6232959 0.899999976 16.1999996 14.3999996 20.0752768 14.3999996 22.4999994 0.899999976"></polygon>
                <g id="Group-12" stroke-width="1">
                    <g id="Group-4" transform="translate(21.599999, 0.000000)">
                        <polygon id="Clip-3" points="0.330209991 0.284914278 11.3401347 0.284914278 11.3401347 14.3999996 0.330209991 14.3999996"></polygon>
                        <path d="M11.3401347,0.85885712 C10.6131597,0.581828556 9.47443475,0.284914278 8.05153479,0.284914278 C4.42610988,0.284914278 1.87258495,2.13908566 1.85030995,4.79759987 C1.83073495,6.76217125 3.6741599,7.85862836 5.06600987,8.51279977 C6.49363483,9.18274261 6.97423482,9.61062832 6.96680982,10.2092569 C6.95803482,11.1253711 5.82673485,11.5443426 4.77238487,11.5443426 C3.30358491,11.5443426 2.52328493,11.3372568 1.31840997,10.8263997 L0.845909978,10.6090283 L0.330209991,13.6707425 C1.18745997,14.0519996 2.77235993,14.3831996 4.41800988,14.4003425 C8.27428478,14.4003425 10.7785347,12.5667425 10.8068847,9.72788546 C10.8203847,8.1726855 9.84298474,6.98845696 7.7261848,6.01268556 C6.44368483,5.37977129 5.65865985,4.95805701 5.66675985,4.31691417 C5.66675985,3.74914276 6.33163483,3.1409142 7.76803479,3.1409142 C8.96750976,3.12239992 9.83690974,3.38777134 10.5139347,3.6647999 L10.8426597,3.82251418 L11.3401347,0.85885712" id="Fill-2" fill-opacity="0.9" fill="#000000"></path>
                    </g>
                    <g id="Group-7" transform="translate(31.724999, 0.000000)">
                        <polygon id="Clip-6" points="0.417892489 0.535474272 13.5938246 0.535474272 13.5938246 14.2017596 0.417892489 14.2017596"></polygon>
                        <path d="M6.09936734,9.34964547 C6.40311733,8.56175977 7.5614173,5.52678843 7.5614173,5.52678843 C7.5398173,5.56313128 7.86246729,4.73547416 8.04809229,4.22118846 L8.29581728,5.400617 C8.29581728,5.400617 8.99849226,8.66461691 9.14496726,9.34964547 L6.09936734,9.34964547 Z M10.6238922,0.535474272 L7.78889229,0.535474272 C6.91071732,0.535474272 6.25326733,0.778902837 5.86716734,1.66964567 L0.417892489,14.2017596 L4.27146739,14.2017596 C4.27146739,14.2017596 4.90124237,12.516274 5.04366737,12.146674 C5.46486736,12.146674 9.20706726,12.1521597 9.74234224,12.1521597 C9.85236724,12.631474 10.1891922,14.2017596 10.1891922,14.2017596 L13.5938921,14.2017596 L10.6238922,0.535474272 L10.6238922,0.535474272 Z" id="Fill-5" fill-opacity="0.9" fill="#000000"></path>
                    </g>
                    <path d="M12.8879097,0.532457129 L9.29555975,9.85748545 L8.91283476,7.96217122 C8.24458478,5.77748556 6.16085984,3.41108562 3.8314349,2.22617137 L7.11598481,14.1857139 L10.9979097,14.1809139 L16.7745596,0.532457129 L12.8879097,0.532457129" id="Fill-8" fill-opacity="0.9" fill="#000000"></path>
                    <path d="M5.96321984,0.523748558 L0.0468449988,0.523748558 L0.000269999993,0.808319979 C4.60309488,1.94043423 7.6486948,4.67574845 8.91296976,7.96237693 L7.6264198,1.67849138 C7.4043448,0.812434264 6.76039482,0.553919985 5.96321984,0.523748558" id="Fill-10" fill-opacity="0.7" fill="#000000"></path>
                </g>
            </g>
        </g>
    </g>
</svg>